<?xml version="1.0" encoding="UTF-8" standalone="no"?>
<!-- Created with Inkscape (http://www.inkscape.org/) -->

<svg
   width="210mm"
   height="297mm"
   viewBox="0 0 210 297"
   version="1.1"
   id="svg1781"
   xmlns:inkscape="http://www.inkscape.org/namespaces/inkscape"
   xmlns:sodipodi="http://sodipodi.sourceforge.net/DTD/sodipodi-0.dtd"
   xmlns="http://www.w3.org/2000/svg"
   xmlns:svg="http://www.w3.org/2000/svg">
  <sodipodi:namedview
     id="namedview1783"
     pagecolor="#ffffff"
     bordercolor="#000000"
     borderopacity="0.25"
     inkscape:showpageshadow="2"
     inkscape:pageopacity="0.0"
     inkscape:pagecheckerboard="0"
     inkscape:deskcolor="#d1d1d1"
     inkscape:document-units="mm"
     showgrid="false" />
  <defs
     id="defs1778" />
  <g
     inkscape:label="Layer 1"
     inkscape:groupmode="layer"
     id="layer1">
    <path
       style="fill:#262429;fill-opacity:1;stroke:#000000;stroke-width:0.680735;stroke-linejoin:round;stroke-dasharray:none;stroke-opacity:1"
       d="m 19.808818,213.57768 c -0.835528,-2.9392 -0.406517,-6.13698 0.189643,-9.12765 0.846739,-4.24771 4.740947,-12.17023 4.740947,-12.17023 l 7.775171,-17.36047 c 0,0 2.41525,-15.64201 4.551304,-23.26659 2.018472,-7.2049 4.495905,-14.33945 7.775171,-21.11891 2.21085,-4.57066 7.964803,-13.06509 7.964803,-13.06509 0,0 9.029212,7.22329 13.08502,11.27535 5.708293,5.703 15.739973,18.25533 15.739973,18.25533 0,0 7.680658,-1.34158 11.56793,-1.61077 5.989075,-0.41472 12.04428,-0.60146 18.01559,0 5.65876,0.56997 16.68815,3.4005 16.68815,3.4005 0,0 7.05115,-9.39503 11.18867,-13.60201 5.38916,-5.47965 17.63634,-15.0338 17.63634,-15.0338 5.69641,6.77098 8.71429,15.73105 10.99899,22.90865 1.71963,5.40404 3.49772,11.9074 4.36167,17.00252 0.86395,5.0951 0.79087,9.15742 1.13782,13.42303 0.34697,4.26562 0.9482,12.17022 0.9482,12.17022 l 5.12025,14.85483 c 0,0 1.79493,5.44452 1.89638,8.05383 0.10149,2.60931 -0.18291,4.79916 -1.13784,7.33792 -0.95493,2.53876 -2.30586,4.98306 -4.74097,7.51691 -2.43509,2.53383 -6.01076,4.74593 -10.05082,6.97997 -21.94224,11.22555 -42.98759,12.71279 -67.511155,11.6333 -24.523544,-1.07949 -69.29081,-3.47242 -77.941237,-28.45684 z"
       id="path1636"
       sodipodi:nodetypes="csccsscscsscscczzcczzzczc" />
    <path
       style="fill:#fdf2e0;fill-opacity:1;stroke:#000000;stroke-width:0.340367;stroke-linejoin:round;stroke-dasharray:none;stroke-opacity:1"
       d="m 42.74444,188.54167 c 0,0 12.824437,0.87737 19.248281,0.89487 6.548655,0.0179 19.627533,-0.80538 19.627533,-0.80538 -0.402208,6.39381 -5.193344,13.66554 -10.619721,16.37612 -2.391663,1.0784 -5.219386,1.07368 -7.869995,1.07383 -2.874082,1.7e-4 -5.853034,-0.18508 -8.533718,-1.16332 -2.526454,-0.92197 -4.88465,-2.42584 -6.732146,-4.29537 -3.328201,-3.67582 -4.667378,-7.3299 -5.120234,-12.08075 z"
       id="path4686"
       sodipodi:nodetypes="csccsscc" />
    <path
       style="fill:#fdf2e0;fill-opacity:1;stroke:#000000;stroke-width:0.136147;stroke-linejoin:round;stroke-dasharray:none;stroke-opacity:1"
       d="m 110.2934,188.58787 c 0,0 12.73811,0.42856 19.08881,0.36431 6.67316,-0.0674 19.94108,-0.80101 19.94108,-0.80101 -3.55373,10.82357 -9.19883,17.51032 -20.00683,17.76315 -8.44628,0.53963 -16.39951,-6.86415 -18.72675,-13.33355 -0.44908,-1.3362 -0.49418,-2.63646 -0.29631,-3.9929 z"
       id="path13850"
       sodipodi:nodetypes="cscccc" />
    <path
       style="fill:#252328;fill-opacity:1;stroke:#000000;stroke-width:0.0680734;stroke-linejoin:round;stroke-dasharray:none;stroke-opacity:1"
       d="m 123.80266,193.81059 c 0.69533,-1.86536 5.49488,-1.79957 6.28567,0.0316 0.49207,1.13946 -1.48057,2.52787 -2.78247,2.59434 -1.48906,0.076 -3.99809,-1.29832 -3.5032,-2.62596 z"
       id="path14823-8-5"
       sodipodi:nodetypes="ssss" />
    <path
       style="fill:#fdf2e0;fill-opacity:1;stroke:#000000;stroke-width:0.0680735;stroke-linejoin:round;stroke-dasharray:none;stroke-opacity:1"
       d="m 42.688536,200.77142 c -6.444756,-0.16516 -13.019787,-3.60494 -17.873391,-5.72713 6.213327,1.03799 12.02504,2.20894 17.731159,3.84795 z"
       id="path14811"
       sodipodi:nodetypes="cccc" />
    <path
       style="fill:#fdf2e0;fill-opacity:1;stroke:#000000;stroke-width:0.0680735;stroke-linejoin:round;stroke-dasharray:none;stroke-opacity:1"
       d="m 42.404085,204.88782 -16.735573,6.30881 c 6.085941,-0.98247 11.837177,-2.73654 17.49412,-5.056 z"
       id="path14813"
       sodipodi:nodetypes="cccc" />
    <path
       style="fill:#fdf2e0;fill-opacity:1;stroke:#000000;stroke-width:0.0680735;stroke-linejoin:round;stroke-dasharray:none;stroke-opacity:1"
       d="m 42.973001,210.436 c 0,0 0.508249,0.0575 0.663725,0.22372 0.192852,0.20617 0.189644,0.80538 0.189644,0.80538 -2.695639,1.3865 -5.113829,3.17322 -8.130732,3.76968 1.693856,-2.39675 5.034042,-3.5962 7.277363,-4.79878 z"
       id="path14815"
       sodipodi:nodetypes="csccc" />
    <path
       style="fill:#fdf2e0;fill-opacity:1;stroke:#000000;stroke-width:0.0680734;stroke-linejoin:round;stroke-dasharray:none;stroke-opacity:1"
       d="m 150.33422,199.42933 c 5.97935,-2.11182 12.87033,-3.45169 18.20332,-4.39773 -6.00062,2.715 -11.36513,5.05757 -17.59988,5.78981 0,0 -0.80486,-0.30151 -0.90514,-0.60112 -0.10033,-0.2996 0.3017,-0.79096 0.3017,-0.79096 z"
       id="path14817"
       sodipodi:nodetypes="ccczc" />
    <path
       style="fill:#fdf2e0;fill-opacity:1;stroke:#000000;stroke-width:0.0680734;stroke-linejoin:round;stroke-dasharray:none;stroke-opacity:1"
       d="m 150.50185,205.02932 c 6.48607,2.66233 11.75616,3.17162 17.1976,7.2452 -6.40364,-0.81045 -12.87028,-3.60409 -17.93513,-5.75819 0,0 -0.88688,-0.56576 -0.77104,-0.94915 0.14738,-0.48788 1.50857,-0.53786 1.50857,-0.53786 z"
       id="path14819"
       sodipodi:nodetypes="cccsc" />
    <path
       style="fill:#fdf2e0;fill-opacity:1;stroke:#000000;stroke-width:0.0680734;stroke-linejoin:round;stroke-dasharray:none;stroke-opacity:1"
       d="m 148.85919,210.59768 c 0.21889,-0.252 0.90513,-0.0949 0.90513,-0.0949 2.39796,1.32458 5.29446,2.84866 6.82205,5.06214 -2.84492,-0.46498 -5.20363,-2.46187 -7.62662,-3.8757 0,0 -0.31946,-0.83948 -0.10064,-1.09148 z"
       id="path14821"
       sodipodi:nodetypes="zcccz" />
    <path
       style="fill:#d9bbbc;fill-opacity:1;stroke:#000000;stroke-width:0.0680734;stroke-linejoin:round;stroke-dasharray:none;stroke-opacity:1"
       d="m 90.629507,203.25696 c 0.69533,-1.86537 5.494868,-1.79959 6.285658,0.0316 0.492059,1.13946 -1.480587,2.52786 -2.782456,2.59434 -1.489055,0.076 -3.998092,-1.29832 -3.503202,-2.62595 z"
       id="path14823"
       sodipodi:nodetypes="ssss" />
    <path
       style="fill:#252328;fill-opacity:1;stroke:#000000;stroke-width:0.0680734;stroke-linejoin:round;stroke-dasharray:none;stroke-opacity:1"
       d="m 59.600819,193.76059 c 0.695327,-1.86537 5.494881,-1.79958 6.285674,0.0316 0.492062,1.13946 -1.480583,2.52787 -2.782471,2.59435 -1.489062,0.076 -3.998096,-1.29833 -3.503203,-2.62596 z"
       id="path14823-8"
       sodipodi:nodetypes="ssss" />
    <path
       style="fill:#000000;fill-opacity:1;stroke:#000000;stroke-width:0.0680734;stroke-linejoin:round;stroke-dasharray:none;stroke-opacity:1"
       d="m 87.056122,211.65015 6.352874,-3.60185 7.206234,4.45198 c 0,0 0.24336,0.33578 0.14223,0.44743 -0.10394,0.11481 -0.40298,0.24609 -0.40298,0.24609 l -6.874366,-4.273 -6.068411,3.37813 c 0,0 -0.575765,0.0419 -0.663744,-0.15659 -0.07787,-0.17581 0.308164,-0.49219 0.308163,-0.49219 z"
       id="path16267"
       sodipodi:nodetypes="cccscccsc" />
    <path
       style="opacity:0.608833;fill:#000000;fill-opacity:1;stroke:#000000;stroke-width:0.0680734;stroke-linejoin:round;stroke-dasharray:none;stroke-opacity:1"
       d="m 52.811126,117.51774 -5.508798,42.8525 c 0,0 4.786451,-4.16535 7.509289,-5.82145 2.638037,-1.60452 5.493115,-2.92494 8.447935,-3.92317 2.766311,-0.93453 5.684989,-1.43587 8.582054,-1.8983 3.367998,-0.53761 10.191164,-1.01244 10.191164,-1.01244 0,0 -12.924358,-16.78204 -21.075833,-23.56198 -2.101942,-1.7483 -8.145812,-6.63516 -8.145811,-6.63516 z"
       id="path19582"
       sodipodi:nodetypes="ccssscsc" />
    <path
       style="fill:#ff9a00;fill-opacity:1;stroke:#000000;stroke-width:0.520118;stroke-linejoin:round;stroke-dasharray:none;stroke-opacity:1"
       d="m 58.909832,122.64926 4.423185,-21.50787 1.451525,-0.20802 17.43253,18.70188 8.844568,-4.00925 9.19594,-13.76998 2.07742,0.21315 9.98753,19.09016 7.68909,-0.8681 16.9691,-14.84478 2.2137,0.7525 1.53392,19.06977 -5.46453,4.74715 z"
       id="path5087"
       sodipodi:nodetypes="cccccccccccccc" />
    <path
       style="fill:#310206;fill-opacity:1;stroke:#000000;stroke-width:0;stroke-linejoin:round;stroke-dasharray:none"
       d="m 62.319721,117.92659 2.040734,-11.43544 c 0,0 0.7551,0.0849 1.120573,0.008 0.534457,-0.11216 1.491114,-0.66896 1.491114,-0.66896 0,0 -0.775337,0.77714 -1.257305,1.0293 -0.269914,0.14122 -0.880943,0.25285 -0.880943,0.25285 0,0 0.02893,2.27391 0.287962,3.37278 0.423477,1.79647 2.04419,5.15513 2.04419,5.15513 l -1.194419,-5.3101 1.726626,4.04426 -0.978455,-4.2045 4.359625,7.83698 -3.515825,4.81741 -2.418898,-0.0257 -3.293406,-3.82692 z"
       id="path25800"
       sodipodi:nodetypes="ccscscsccccccccc" />
    <path
       style="fill:#310206;fill-opacity:1;stroke:#000000;stroke-width:0;stroke-linejoin:round;stroke-dasharray:none"
       d="m 94.068654,115.47752 5.654171,-9.60666 c 0,0 1.129985,0.33819 1.712885,0.33743 0.6397,-7.6e-4 1.88169,-0.37512 1.88169,-0.37512 0,0 -0.99352,0.86001 -1.61295,1.01087 -0.28013,0.0682 -0.8622,-0.0696 -0.8622,-0.0696 l -1.342805,5.12895 3.170835,5.93479 -1.62658,-6.20304 2.82498,4.87221 -1.21081,-4.58961 2.51117,4.13462 -0.33843,-2.50484 4.8967,6.04905 -8.99131,9.16024 -7.876406,-11.32725 z"
       id="path37329"
       sodipodi:nodetypes="ccscscccccccccccc" />
    <path
       style="fill:#310206;fill-opacity:1;stroke:#000000;stroke-width:0;stroke-linejoin:round;stroke-dasharray:none"
       d="m 129.08014,120.57018 5.98804,-7.67027 -2.08577,5.05344 2.95453,-4.98359 -1.95742,5.16618 c 0,0 2.42683,-3.38756 3.09157,-5.29029 0.29689,-0.84983 0.37207,-2.65465 0.37207,-2.65465 0,0 -0.9156,-0.39521 -1.31351,-0.67407 -0.40177,-0.28155 -1.05935,-0.99122 -1.05935,-0.99122 0,0 0.93495,0.57643 1.46468,0.73568 0.44898,0.13506 1.40542,0.17215 1.40542,0.17215 l 0.86687,15.15236 -4.84156,1.28292 z"
       id="path40963"
       sodipodi:nodetypes="cccccscscscccc" />
    <path
       style="fill:#ff9a00;fill-opacity:1;stroke:#000000;stroke-width:0.520118;stroke-linejoin:round;stroke-dasharray:none;stroke-opacity:1"
       d="m 62.116889,148.66967 c 0,0 0.358755,-3.66864 0.320161,-5.50604 -0.06394,-3.04392 -0.3152,-6.10128 -0.912825,-9.08749 -0.605428,-3.02517 -1.521287,-6.002 -2.691416,-8.86303 -1.058735,-2.58865 -3.004064,-6.31253 -4.684709,-9.38924 -1.680653,-3.0767 -3.096614,-5.50626 -3.096614,-5.50626 l -2.236813,-3.89762 -0.387478,-2.40187 2.603285,-1.39848 2.39955,2.10517 11.33963,16.29327 c 0,0 0.433072,0.66309 0.781377,0.81432 0.328472,0.1426 0.74357,0.14779 1.079712,0.0207 0.293094,-0.11084 0.67699,-0.70788 0.67699,-0.70788 l 2.714513,-6.18683 6.044131,-13.47592 3.085749,-6.59397 3.874984,3.999686 4.460099,6.949594 7.479506,12.03063 4.854463,7.6032 5.220756,-6.13165 11.7476,-14.72433 6.21256,-6.9412 2.82034,4.07603 3.05038,9.75902 4.24615,12.85547 c 0,0 0.26448,0.4336 0.47703,0.55948 0.29335,0.1737 0.66735,0.26829 1.00669,0.21382 0.21714,-0.0349 0.56702,-0.33131 0.56702,-0.33131 l 13.19921,-14.44412 3.61018,-1.36077 -0.51748,4.87125 c 0,0 -2.24602,3.34475 -3.39889,4.99758 -1.46823,2.10493 -3.08205,4.11438 -4.48016,6.26418 -1.23239,1.89492 -2.44491,3.81328 -3.4381,5.83701 -1.03702,2.11312 -1.94652,4.29868 -2.61469,6.54802 -0.73897,2.48776 -1.52426,7.62458 -1.52426,7.62458 l -0.77416,4.63831 -0.22284,2.59147 c 0,0 -8.1325,-1.87888 -12.24331,-2.60396 -5.90944,-1.0423 -11.84975,-1.99285 -17.83376,-2.50655 -5.232375,-0.44918 -10.498311,-0.51921 -15.752614,-0.49927 -5.408624,0.0206 -10.822035,0.21714 -16.215045,0.63758 -3.629395,0.28296 -10.846982,1.26733 -10.846982,1.26733 z"
       id="path435"
       sodipodi:nodetypes="cssssccccccssccccccccccccccssccccsssscccssssc" />
    <ellipse
       style="fill:#ff9a00;fill-opacity:1;stroke:#000000;stroke-width:0.563401;stroke-linejoin:round;stroke-dasharray:none;stroke-opacity:1"
       id="path5023"
       cx="56.420078"
       cy="101.79971"
       rx="4.192049"
       ry="4.038269"
       transform="matrix(0.9986615,0.05172234,-0.05804958,0.9983137,0,0)" />
    <ellipse
       style="fill:#ff9a00;fill-opacity:1;stroke:#000000;stroke-width:0.581626;stroke-linejoin:round;stroke-dasharray:none;stroke-opacity:1"
       id="ellipse5025"
       cx="85.484734"
       cy="92.033691"
       rx="4.3267136"
       ry="4.1697831"
       transform="matrix(0.9986615,0.05172234,-0.05804958,0.9983137,0,0)" />
    <ellipse
       style="fill:#ff9a00;fill-opacity:1;stroke:#000000;stroke-width:0.565241;stroke-linejoin:round;stroke-dasharray:none;stroke-opacity:1"
       id="ellipse5027"
       cx="128.73997"
       cy="91.840469"
       rx="4.3529882"
       ry="3.9144065"
       transform="matrix(0.9986615,0.05172234,-0.05804958,0.9983137,0,0)" />
    <ellipse
       style="fill:#ff9a00;fill-opacity:1;stroke:#000000;stroke-width:0.538345;stroke-linejoin:round;stroke-dasharray:none;stroke-opacity:1"
       id="ellipse5029"
       cx="157.58879"
       cy="102.09831"
       rx="4.0068855"
       ry="3.8574376"
       transform="matrix(0.9986615,0.05172234,-0.05804958,0.9983137,0,0)" />
    <ellipse
       style="fill:#ff9a00;fill-opacity:1;stroke:#000000;stroke-width:0.397475;stroke-linejoin:round;stroke-dasharray:none;stroke-opacity:1"
       id="ellipse5089"
       cx="70.028015"
       cy="98.173019"
       rx="2.9787946"
       ry="2.828558"
       transform="matrix(0.9986615,0.05172234,-0.05804958,0.9983137,0,0)" />
    <ellipse
       style="fill:#ff9a00;fill-opacity:1;stroke:#000000;stroke-width:0.41199;stroke-linejoin:round;stroke-dasharray:none;stroke-opacity:1"
       id="ellipse5091"
       cx="107.11281"
       cy="96.558388"
       rx="3.0731919"
       ry="2.9455874"
       transform="matrix(0.9986615,0.05172234,-0.05804958,0.9983137,0,0)" />
    <ellipse
       style="fill:#ff9a00;fill-opacity:1;stroke:#000000;stroke-width:0.372793;stroke-linejoin:round;stroke-dasharray:none;stroke-opacity:1"
       id="ellipse5093"
       cx="144.27394"
       cy="98.123329"
       rx="2.9149756"
       ry="2.5426688"
       transform="matrix(0.9986615,0.05172234,-0.05804958,0.9983137,0,0)" />
    <path
       style="fill:#ff9a00;fill-opacity:1;stroke:#000000;stroke-width:0.515187;stroke-linejoin:round;stroke-dasharray:none;stroke-opacity:1"
       d="m 61.661185,148.81149 c 4.38415,-0.98532 9.48948,-1.39667 14.26575,-1.76267 5.060064,-0.38777 10.142003,-0.51909 15.213963,-0.45661 5.686767,0.0701 11.375032,0.3735 17.031632,0.93191 4.38451,0.43283 8.74847,1.08143 13.08022,1.8722 4.48243,0.81831 8.83804,1.62876 13.33955,2.96884 0.55909,0.16643 1.14714,0.56294 1.34861,1.10828 0.17547,0.47496 0.0365,1.18387 -0.25719,1.59988 -0.25019,0.35453 -0.7229,0.60045 -1.13931,0.54546 -1.82713,-0.2414 -4.20178,-0.94747 -6.31462,-1.36548 -3.38533,-0.66981 -6.77578,-1.32752 -10.1911,-1.83026 -3.42894,-0.50475 -6.87727,-0.8905 -10.33164,-1.18941 -5.26605,-0.45564 -10.549085,-0.7364 -15.833354,-0.91963 -3.276241,-0.11362 -6.556556,-0.15797 -9.835382,-0.11111 -2.354791,0.0336 -4.71139,0.10396 -7.060532,0.28148 -3.060165,0.23118 -6.099467,0.69591 -9.151728,1.01947 -1.305876,0.13841 -2.619633,0.4562 -3.919694,0.39436 -0.499171,-0.0244 -0.827877,-0.57206 -1.023465,-1.08597 -0.118001,-0.31005 -0.09555,-0.94373 -0.03848,-1.27143 0.06479,-0.372 0.460695,-0.6493 0.816777,-0.72933 z"
       id="path5095"
       sodipodi:nodetypes="ssssssssssssssssssss" />
    <path
       style="fill:#ff9a00;fill-opacity:1;stroke:#000000;stroke-width:0.56306;stroke-linejoin:round;stroke-dasharray:none;stroke-opacity:1"
       d="m 61.613783,134.29169 c 4.534134,-1.16816 9.808757,-1.67698 14.743306,-2.13122 5.227717,-0.48126 10.47618,-0.66595 15.712908,-0.62642 5.871548,0.0443 11.742943,0.35863 17.579783,0.96812 4.52417,0.47241 9.02561,1.19453 13.49276,2.08139 4.62258,0.91773 9.11416,1.82716 13.75265,3.34834 0.57609,0.18895 1.18043,0.64384 1.38451,1.2734 0.17774,0.54835 0.029,1.36931 -0.27716,1.85246 -0.26093,0.41177 -0.7508,0.6993 -1.1804,0.63837 -1.88489,-0.26746 -4.33181,-1.06893 -6.51042,-1.53889 -3.49081,-0.75299 -6.98693,-1.49197 -10.50988,-2.05151 -3.53698,-0.56177 -7.09487,-0.98581 -10.65963,-1.30926 -5.43429,-0.49314 -10.887396,-0.78381 -16.342522,-0.96165 -3.382136,-0.11031 -6.768996,-0.14039 -10.154994,-0.0651 -2.43176,0.0541 -4.865626,0.15076 -7.292599,0.37122 -3.161537,0.28717 -6.30322,0.84443 -9.457269,1.23842 -1.34943,0.16856 -2.708292,0.54468 -4.050253,0.48152 -0.515223,-0.0254 -0.8507,-0.65644 -1.048935,-1.24966 -0.119614,-0.35795 -0.09182,-1.09115 -0.03052,-1.47061 0.0696,-0.43077 0.480426,-0.7541 0.848674,-0.84899 z"
       id="path5827"
       sodipodi:nodetypes="ssssssssssssssssssss" />
    <path
       style="fill:#ea8901;fill-opacity:1;stroke:#000000;stroke-width:0;stroke-linejoin:round;stroke-dasharray:none"
       d="m 57.470795,121.11679 c 3.10486,1.29685 7.108252,5.61008 10.111844,6.66419 1.547654,0.49722 3.318714,0.70136 4.88553,0.25302 1.655292,-0.47363 3.042876,-1.70348 4.206894,-2.94795 1.768197,-1.89039 3.987911,-6.61757 3.987911,-6.61757 0,0 1.903921,3.66456 3.302719,5.16604 1.286721,1.38117 2.831266,2.59803 4.558303,3.4019 2.243193,1.04411 4.785284,1.38965 7.250788,1.71222 3.99327,0.52246 8.075536,0.75166 12.086436,0.34457 1.17049,-0.11878 2.3423,-0.37507 3.43384,-0.80709 1.52478,-0.60348 2.94302,-1.47657 4.2502,-2.45324 1.60705,-1.20068 4.34807,-4.13662 4.34807,-4.13662 0,0 2.02372,3.82164 3.43011,5.45403 1.1191,1.29898 2.33945,2.64193 3.91168,3.36843 1.19776,0.55347 2.60157,0.69482 3.92706,0.62551 1.43943,-0.0752 2.88415,-0.4858 4.1727,-1.12057 2.3403,-1.15288 7.29048,-4.54706 7.29048,-4.54706 l -5.74256,11.69758 c 0,0 -18.17913,-4.22784 -27.45081,-4.93222 -7.88087,-0.5987 -16.122454,-1.22718 -23.936657,-0.94124 -7.814182,0.28592 -23.055988,2.05897 -23.055988,2.05897 z"
       id="path40967"
       sodipodi:nodetypes="ccsscsssssscssssccszcc" />
    <path
       style="fill:#310206;fill-opacity:1;stroke:#000000;stroke-width:0;stroke-linejoin:round;stroke-dasharray:none"
       d="m 141.75933,127.51009 c 0,0 -1.72454,3.18026 -2.46032,4.75164 -0.84957,1.81439 -2.07804,5.62915 -2.07804,5.62915 0,0 -3.57465,-1.20816 -5.43102,-1.66217 -1.47626,-0.36106 -4.57429,-1.08014 -4.57429,-1.08014 0,0 3.90063,0.29251 5.81663,0.20934 0.6485,-0.0282 1.31414,0.003 1.94023,-0.16678 0.56352,-0.15236 1.11854,-0.39572 1.57857,-0.74886 0.8188,-0.62857 1.39755,-1.51579 1.99025,-2.35187 0.54708,-0.77174 1.59162,-2.33266 1.59162,-2.33266 z"
       id="path18593"
       sodipodi:nodetypes="cscscsssscc" />
    <path
       style="fill:#310206;fill-opacity:1;stroke:#000000;stroke-width:0;stroke-linejoin:round;stroke-dasharray:none"
       d="m 58.478982,123.72168 c 0,0 1.052515,2.83168 1.620875,4.29093 0.447141,1.14803 1.054602,3.52427 1.054602,3.52427 l 0.598012,2.49345 3.907218,-0.8617 3.273381,-0.44278 3.766606,-0.47478 c 0,0 -4.992352,0.0833 -6.807781,-0.29735 -0.777697,-0.16294 -1.577083,-0.34225 -2.264723,-0.73117 -0.611051,-0.34562 -1.151256,-0.8305 -1.576929,-1.38039 -1.29198,-2.06688 -2.158741,-4.41088 -3.571265,-6.12047 z"
       id="path25798"
       sodipodi:nodetypes="cscccccssccc" />
    <path
       style="fill:#310206;fill-opacity:1;stroke:#000000;stroke-width:0;stroke-linejoin:round;stroke-dasharray:none"
       d="m 69.562314,107.1091 1.310604,2.6547 -0.843276,2.89134 1.513089,-3.01834 z"
       id="path36463" />
    <path
       style="fill:#310206;fill-opacity:1;stroke:#000000;stroke-width:0;stroke-linejoin:round;stroke-dasharray:none"
       d="m 106.28656,110.68622 c 0.0833,0.11864 1.35087,3.87775 1.35087,3.87775 l -0.22635,0.89067 0.77188,-0.96582 z"
       id="path38783"
       sodipodi:nodetypes="ccccc" />
    <path
       style="fill:#310206;fill-opacity:1;stroke:#000000;stroke-width:0;stroke-linejoin:round;stroke-dasharray:none"
       d="m 129.93089,112.72689 c 0.0601,-0.15854 2.29135,-2.38107 2.29135,-2.38107 l -1.59858,2.51645 0.57862,3.41272 z"
       id="path40965" />
    <path
       style="fill:#310206;fill-opacity:1;stroke:#000000;stroke-width:0;stroke-linejoin:round;stroke-dasharray:none"
       d="m 69.105305,120.12621 8.344121,-19.54712 c 0,0 1.310924,0.44934 1.996061,0.52243 0.92045,0.0982 2.776648,-0.1197 2.776648,-0.1197 l -1.51314,0.96949 -4.553622,9.86647 2.421187,-8.70648 z"
       id="path46993"
       sodipodi:nodetypes="ccsccccc" />
    <path
       style="fill:#310206;fill-opacity:1;stroke:#000000;stroke-width:0;stroke-linejoin:round;stroke-dasharray:none"
       d="m 103.92331,122.42372 16.31982,-20.39645 c 0,0 1.41085,0.94816 2.23063,1.07315 0.799,0.12181 2.40242,-0.34817 2.40242,-0.34817 l -1.8027,0.98861 -7.06635,8.04117 4.5085,-6.99217 z"
       id="path47064"
       sodipodi:nodetypes="ccsccccc" />
    <path
       style="fill:#310206;fill-opacity:1;stroke:#000000;stroke-width:0;stroke-linejoin:round;stroke-dasharray:none"
       d="m 51.635664,109.16777 4.353883,7.74409 -1.564913,-4.36926 z"
       id="path47066" />
    <path
       style="fill:#310206;fill-opacity:1;stroke:#000000;stroke-width:0;stroke-linejoin:round;stroke-dasharray:none"
       d="m 143.1049,124.05509 2.86317,-4.93463 1.85582,-2.17273 z"
       id="path47794" />
    <ellipse
       style="fill:#f6ebc3;fill-opacity:1;stroke:#000000;stroke-width:0;stroke-linejoin:round;stroke-dasharray:none"
       id="path48645"
       cx="58.454998"
       cy="100.22893"
       rx="1.0071905"
       ry="0.91336846"
       transform="matrix(0.9986615,0.05172234,-0.05804958,0.9983137,0,0)" />
    <ellipse
       style="fill:#f6ebc3;fill-opacity:1;stroke:#000000;stroke-width:0;stroke-linejoin:round;stroke-dasharray:none"
       id="ellipse52718"
       cx="24.402996"
       cy="117.2991"
       rx="0.77706867"
       ry="0.91484678"
       transform="matrix(0.9363029,-0.3511935,0.36372112,0.93150789,0,0)" />
    <ellipse
       style="fill:#f6ebc3;fill-opacity:1;stroke:#000000;stroke-width:0;stroke-linejoin:round;stroke-dasharray:none"
       id="ellipse54172"
       cx="86.688248"
       cy="90.073135"
       rx="1.0071905"
       ry="0.91336846"
       transform="matrix(0.9986615,0.05172234,-0.05804958,0.9983137,0,0)" />
    <ellipse
       style="fill:#f6ebc3;fill-opacity:1;stroke:#000000;stroke-width:0;stroke-linejoin:round;stroke-dasharray:none"
       id="ellipse54174"
       cx="143.49286"
       cy="-0.43039498"
       rx="0.83040231"
       ry="0.59875405"
       transform="matrix(0.71123327,0.70295607,-0.71994239,0.69403383,0,0)" />
    <ellipse
       style="fill:#f6ebc3;fill-opacity:1;stroke:#000000;stroke-width:0;stroke-linejoin:round;stroke-dasharray:none"
       id="ellipse57155"
       cx="129.06908"
       cy="89.698822"
       rx="1.0071905"
       ry="0.91336846"
       transform="matrix(0.9986615,0.05172234,-0.05804958,0.9983137,0,0)" />
    <ellipse
       style="fill:#f6ebc3;fill-opacity:1;stroke:#000000;stroke-width:0;stroke-linejoin:round;stroke-dasharray:none"
       id="ellipse58609"
       cx="-23.18697"
       cy="-182.45914"
       rx="0.83321166"
       ry="0.5967378"
       transform="matrix(-0.70169082,0.71248157,-0.72935475,-0.68413569,0,0)" />
    <ellipse
       style="fill:#f6ebc3;fill-opacity:1;stroke:#000000;stroke-width:0;stroke-linejoin:round;stroke-dasharray:none"
       id="ellipse59337"
       cx="-165.69955"
       cy="-54.738445"
       rx="0.839046"
       ry="0.59250671"
       transform="matrix(-0.94862637,-0.31639849,0.33323775,-0.94284283,0,0)" />
    <path
       style="fill:#8a61f4;fill-opacity:1;stroke:#000000;stroke-width:0.148605;stroke-linejoin:round;stroke-dasharray:none"
       d="m 96.004284,143.01437 3.14496,-6.10057 0.12612,0.009 2.405026,6.38177 -0.0127,0.22691 -1.34302,2.10347 3e-4,-0.005 -0.17249,0.11269 -2.877186,-0.14903 -0.17368,-0.10872 -1.10364,-2.25512 z"
       id="path63839" />
    <path
       style="fill:#8449f2;fill-opacity:1;stroke:#000000;stroke-width:0;stroke-linejoin:round;stroke-dasharray:none"
       d="m 97.429524,142.91328 1.5864,-3.34234 0.0629,0.004 1.182576,3.48236 -0.007,0.12406 -0.676096,1.15307 1.5e-4,-0.003 -0.0865,0.062 -1.43544,-0.0743 -0.0865,-0.059 -0.54464,-1.22945 z"
       id="path78408" />
    <ellipse
       style="fill:#e81646;fill-opacity:1;stroke:#000000;stroke-width:0.133104;stroke-linejoin:round;stroke-dasharray:none;stroke-opacity:1"
       id="path92172"
       cx="77.722038"
       cy="138.03925"
       rx="1.5431869"
       ry="3.5145326"
       transform="matrix(0.9975352,0.07016784,-0.07872851,0.99689609,0,0)" />
    <ellipse
       style="fill:#e81646;fill-opacity:1;stroke:#000000;stroke-width:0.133106;stroke-linejoin:round;stroke-dasharray:none;stroke-opacity:1"
       id="ellipse95195"
       cx="146.31577"
       cy="132.99141"
       rx="1.5427855"
       ry="3.5155573"
       transform="matrix(0.99540591,0.09574489,-0.10736677,0.99421948,0,0)" />
    <ellipse
       style="fill:#e97b98;fill-opacity:1;stroke:#000000;stroke-width:0;stroke-linejoin:round;stroke-dasharray:none;stroke-opacity:1"
       id="path95197"
       cx="83.695068"
       cy="134.56969"
       rx="0.60297263"
       ry="1.551585"
       transform="matrix(0.99386817,0.11057153,-0.12394386,0.99228923,0,0)" />
    <ellipse
       style="fill:#e97b98;fill-opacity:1;stroke:#000000;stroke-width:0;stroke-linejoin:round;stroke-dasharray:none;stroke-opacity:1"
       id="ellipse100581"
       cx="139.32306"
       cy="139.6602"
       rx="0.60334224"
       ry="1.5505197"
       transform="matrix(0.99888488,0.04721235,-0.05299096,0.99859499,0,0)" />
    <ellipse
       style="fill:#e81646;fill-opacity:1;stroke:#000000;stroke-width:0.133104;stroke-linejoin:round;stroke-dasharray:none;stroke-opacity:1"
       id="ellipse101319"
       cx="90.815269"
       cy="135.82376"
       rx="1.5431869"
       ry="3.5145326"
       transform="matrix(0.9975352,0.07016784,-0.07872851,0.99689609,0,0)" />
    <ellipse
       style="fill:#e97b98;fill-opacity:1;stroke:#000000;stroke-width:0;stroke-linejoin:round;stroke-dasharray:none;stroke-opacity:1"
       id="ellipse101321"
       cx="96.315498"
       cy="132.04384"
       rx="0.60297263"
       ry="1.551585"
       transform="matrix(0.99386817,0.11057153,-0.12394386,0.99228923,0,0)" />
    <ellipse
       style="fill:#e81646;fill-opacity:1;stroke:#000000;stroke-width:0.133106;stroke-linejoin:round;stroke-dasharray:none;stroke-opacity:1"
       id="ellipse101323"
       cx="131.22672"
       cy="131.70703"
       rx="1.5427855"
       ry="3.5155573"
       transform="matrix(0.99540591,0.09574489,-0.10736677,0.99421948,0,0)" />
    <ellipse
       style="fill:#e97b98;fill-opacity:1;stroke:#000000;stroke-width:0;stroke-linejoin:round;stroke-dasharray:none;stroke-opacity:1"
       id="ellipse101325"
       cx="124.48807"
       cy="137.27762"
       rx="0.60334224"
       ry="1.5505197"
       transform="matrix(0.99888488,0.04721235,-0.05299096,0.99859499,0,0)" />
  </g>
</svg>
