<?xml version="1.0" encoding="UTF-8" standalone="no"?>
<!-- Created with Inkscape (http://www.inkscape.org/) -->

<svg
   width="200mm"
   height="200mm"
   viewBox="0 0 200 200"
   version="1.1"
   id="svg5"
   xml:space="preserve"
   inkscape:version="1.2.2 (732a01da63, 2022-12-09)"
   sodipodi:docname="Nearu.svg"
   inkscape:export-filename="Nearu9.svg"
   inkscape:export-xdpi="109.38223"
   inkscape:export-ydpi="109.38223"
   xmlns:inkscape="http://www.inkscape.org/namespaces/inkscape"
   xmlns:sodipodi="http://sodipodi.sourceforge.net/DTD/sodipodi-0.dtd"
   xmlns="http://www.w3.org/2000/svg"
   xmlns:svg="http://www.w3.org/2000/svg"><sodipodi:namedview
     id="namedview7"
     pagecolor="#ffffff"
     bordercolor="#000000"
     borderopacity="0.25"
     inkscape:showpageshadow="2"
     inkscape:pageopacity="0.0"
     inkscape:pagecheckerboard="0"
     inkscape:deskcolor="#d1d1d1"
     inkscape:document-units="mm"
     showgrid="false"
     inkscape:zoom="0.34565095"
     inkscape:cx="-173.58552"
     inkscape:cy="471.57399"
     inkscape:window-width="1920"
     inkscape:window-height="974"
     inkscape:window-x="-11"
     inkscape:window-y="-11"
     inkscape:window-maximized="1"
     inkscape:current-layer="layer1" /><defs
     id="defs2" /><g
     inkscape:label="Layer 1"
     inkscape:groupmode="layer"
     id="layer1"><path
       style="fill:#262429;fill-opacity:1;stroke:#000000;stroke-width:0.680735;stroke-linejoin:round;stroke-dasharray:none;stroke-opacity:1"
       d="m 20.807684,141.73726 c -0.835528,-2.9392 -0.406517,-6.13698 0.189643,-9.12765 0.846739,-4.24771 4.740947,-12.17023 4.740947,-12.17023 l 7.775171,-17.36047 c 0,0 2.41525,-15.642004 4.551304,-23.266584 2.018472,-7.2049 4.495904,-14.33945 7.775174,-21.11891 2.21085,-4.570662 7.964799,-13.065094 7.964799,-13.065094 0,0 9.02921,7.223292 13.08502,11.275354 5.70829,5.703 15.73997,18.25533 15.73997,18.25533 0,0 7.68066,-1.34158 11.56793,-1.61077 5.989088,-0.41472 12.044288,-0.60146 18.015598,0 5.65876,0.56997 16.68815,3.4005 16.68815,3.4005 0,0 7.05115,-9.39503 11.18867,-13.60201 5.38916,-5.47965 17.63634,-15.0338 17.63634,-15.0338 5.69641,6.77098 8.71429,15.73105 10.99899,22.90865 1.71963,5.40404 3.49772,11.9074 4.36167,17.00252 0.86395,5.0951 0.79087,9.15742 1.13782,13.423024 0.34697,4.26562 0.9482,12.17022 0.9482,12.17022 l 5.12025,14.85483 c 0,0 1.79493,5.44452 1.89638,8.05383 0.10149,2.60931 -0.18291,4.79916 -1.13784,7.33792 -0.95493,2.53876 -2.30586,4.98306 -4.74097,7.51691 -2.43509,2.53383 -6.01076,4.74593 -10.05082,6.97997 -21.94224,11.22555 -42.98759,12.71279 -67.511154,11.6333 -24.523554,-1.07949 -69.290816,-3.47242 -77.941242,-28.45684 z"
       id="path1636"
       sodipodi:nodetypes="csccsscscsscscczzcczzzczc"
       inkscape:export-filename=".\path1636.svg"
       inkscape:export-xdpi="109.38223"
       inkscape:export-ydpi="109.38223" /><path
       style="fill:#fdf2e0;fill-opacity:1;stroke:#000000;stroke-width:0.340367;stroke-linejoin:round;stroke-dasharray:none;stroke-opacity:1"
       d="m 43.743303,116.70125 c 0,0 12.824439,0.87737 19.248279,0.89487 6.54866,0.0179 19.62754,-0.80538 19.62754,-0.80538 -0.40221,6.39381 -5.19335,13.66554 -10.61973,16.37612 -2.39166,1.0784 -5.21938,1.07368 -7.86999,1.07383 -2.87408,1.7e-4 -5.85303,-0.18508 -8.53372,-1.16332 -2.52645,-0.92197 -4.884649,-2.42584 -6.732139,-4.29537 -3.32821,-3.67582 -4.66738,-7.3299 -5.12024,-12.08075 z"
       id="path4686"
       sodipodi:nodetypes="csccsscc" /><path
       style="fill:#fdf2e0;fill-opacity:1;stroke:#000000;stroke-width:0.136147;stroke-linejoin:round;stroke-dasharray:none;stroke-opacity:1"
       d="m 111.29227,116.74745 c 0,0 12.73811,0.42856 19.08881,0.36431 6.67316,-0.0674 19.94108,-0.80101 19.94108,-0.80101 -3.55373,10.82357 -9.19883,17.51032 -20.00683,17.76315 -8.44628,0.53963 -16.39951,-6.86415 -18.72675,-13.33355 -0.44908,-1.3362 -0.49418,-2.63646 -0.29631,-3.9929 z"
       id="path13850"
       sodipodi:nodetypes="cscccc" /><path
       style="fill:#252328;fill-opacity:1;stroke:#000000;stroke-width:0.0680734;stroke-linejoin:round;stroke-dasharray:none;stroke-opacity:1"
       d="m 124.80153,121.97017 c 0.69533,-1.86536 5.49488,-1.79957 6.28567,0.0316 0.49207,1.13946 -1.48057,2.52787 -2.78247,2.59434 -1.48906,0.076 -3.99809,-1.29832 -3.5032,-2.62596 z"
       id="path14823-8-5"
       sodipodi:nodetypes="ssss" /><path
       style="fill:#fdf2e0;fill-opacity:1;stroke:#000000;stroke-width:0.0680735;stroke-linejoin:round;stroke-dasharray:none;stroke-opacity:1"
       d="m 43.687403,128.931 c -6.444758,-0.16516 -13.019788,-3.60494 -17.873393,-5.72713 6.213327,1.03799 12.02504,2.20894 17.731163,3.84795 z"
       id="path14811"
       sodipodi:nodetypes="cccc" /><path
       style="fill:#fdf2e0;fill-opacity:1;stroke:#000000;stroke-width:0.0680735;stroke-linejoin:round;stroke-dasharray:none;stroke-opacity:1"
       d="m 43.402953,133.0474 -16.735575,6.30881 c 6.085941,-0.98247 11.837176,-2.73654 17.494115,-5.056 z"
       id="path14813"
       sodipodi:nodetypes="cccc" /><path
       style="fill:#fdf2e0;fill-opacity:1;stroke:#000000;stroke-width:0.0680735;stroke-linejoin:round;stroke-dasharray:none;stroke-opacity:1"
       d="m 43.971863,138.59558 c 0,0 0.50825,0.0575 0.66373,0.22372 0.19285,0.20617 0.18964,0.80538 0.18964,0.80538 -2.69564,1.3865 -5.113826,3.17322 -8.13073,3.76968 1.693857,-2.39675 5.03404,-3.5962 7.27736,-4.79878 z"
       id="path14815"
       sodipodi:nodetypes="csccc" /><path
       style="fill:#fdf2e0;fill-opacity:1;stroke:#000000;stroke-width:0.0680734;stroke-linejoin:round;stroke-dasharray:none;stroke-opacity:1"
       d="m 151.33309,127.58891 c 5.97935,-2.11182 12.87033,-3.45169 18.20332,-4.39773 -6.00062,2.715 -11.36513,5.05757 -17.59988,5.78981 0,0 -0.80486,-0.30151 -0.90514,-0.60112 -0.10033,-0.2996 0.3017,-0.79096 0.3017,-0.79096 z"
       id="path14817"
       sodipodi:nodetypes="ccczc" /><path
       style="fill:#fdf2e0;fill-opacity:1;stroke:#000000;stroke-width:0.0680734;stroke-linejoin:round;stroke-dasharray:none;stroke-opacity:1"
       d="m 151.50072,133.1889 c 6.48607,2.66233 11.75616,3.17162 17.1976,7.2452 -6.40364,-0.81045 -12.87028,-3.60409 -17.93513,-5.75819 0,0 -0.88688,-0.56576 -0.77104,-0.94915 0.14738,-0.48788 1.50857,-0.53786 1.50857,-0.53786 z"
       id="path14819"
       sodipodi:nodetypes="cccsc" /><path
       style="fill:#fdf2e0;fill-opacity:1;stroke:#000000;stroke-width:0.0680734;stroke-linejoin:round;stroke-dasharray:none;stroke-opacity:1"
       d="m 149.85806,138.75726 c 0.21889,-0.252 0.90513,-0.0949 0.90513,-0.0949 2.39796,1.32458 5.29446,2.84866 6.82205,5.06214 -2.84492,-0.46498 -5.20363,-2.46187 -7.62662,-3.8757 0,0 -0.31946,-0.83948 -0.10064,-1.09148 z"
       id="path14821"
       sodipodi:nodetypes="zcccz" /><path
       style="fill:#d9bbbc;fill-opacity:1;stroke:#000000;stroke-width:0.0680734;stroke-linejoin:round;stroke-dasharray:none;stroke-opacity:1"
       d="m 91.628372,131.41654 c 0.69533,-1.86537 5.494874,-1.79959 6.285664,0.0316 0.49206,1.13946 -1.48059,2.52786 -2.782464,2.59434 -1.48905,0.076 -3.99809,-1.29832 -3.5032,-2.62595 z"
       id="path14823"
       sodipodi:nodetypes="ssss" /><path
       style="fill:#252328;fill-opacity:1;stroke:#000000;stroke-width:0.0680734;stroke-linejoin:round;stroke-dasharray:none;stroke-opacity:1"
       d="m 60.599682,121.92017 c 0.69533,-1.86537 5.49488,-1.79958 6.28568,0.0316 0.49206,1.13946 -1.48059,2.52787 -2.78248,2.59435 -1.48906,0.076 -3.99809,-1.29833 -3.5032,-2.62596 z"
       id="path14823-8"
       sodipodi:nodetypes="ssss" /><path
       style="fill:#000000;fill-opacity:1;stroke:#000000;stroke-width:0.0680734;stroke-linejoin:round;stroke-dasharray:none;stroke-opacity:1"
       d="m 88.054982,139.80973 6.35288,-3.60185 7.206248,4.45198 c 0,0 0.24336,0.33578 0.14223,0.44743 -0.10394,0.11481 -0.40298,0.24609 -0.40298,0.24609 l -6.874378,-4.273 -6.06842,3.37813 c 0,0 -0.57576,0.0419 -0.66374,-0.15659 -0.0779,-0.17581 0.30816,-0.49219 0.30816,-0.49219 z"
       id="path16267"
       sodipodi:nodetypes="cccscccsc" /><path
       style="opacity:0.608833;fill:#000000;fill-opacity:1;stroke:#000000;stroke-width:0.0680734;stroke-linejoin:round;stroke-dasharray:none;stroke-opacity:1"
       d="m 53.809992,45.677326 -5.508799,42.8525 c 0,0 4.786449,-4.16535 7.509289,-5.82145 2.63804,-1.60452 5.49311,-2.92494 8.44793,-3.92317 2.76632,-0.93453 5.68499,-1.43587 8.58206,-1.8983 3.368,-0.53761 10.19116,-1.01244 10.19116,-1.01244 0,0 -12.92436,-16.78204 -21.07583,-23.561986 -2.10194,-1.748296 -8.14581,-6.635154 -8.14581,-6.635154 z"
       id="path19582"
       sodipodi:nodetypes="ccssscsc" /><path
       style="fill:#ff9a00;fill-opacity:1;stroke:#000000;stroke-width:0.520118;stroke-linejoin:round;stroke-dasharray:none;stroke-opacity:1"
       d="m 59.908692,50.808841 4.42319,-21.50787 1.45152,-0.208012 17.43253,18.701878 8.84457,-4.009248 9.195958,-13.769987 2.07742,0.213157 9.98752,19.090159 7.68909,-0.868107 16.9691,-14.844772 2.2137,0.7525 1.53392,19.069765 -5.46453,4.747152 z"
       id="path5087"
       sodipodi:nodetypes="cccccccccccccc" /><path
       style="fill:#310206;fill-opacity:1;stroke:#000000;stroke-width:0;stroke-linejoin:round;stroke-dasharray:none"
       d="m 63.318582,46.086179 2.04074,-11.435443 c 0,0 0.7551,0.08491 1.12057,0.008 0.53446,-0.11216 1.49111,-0.668963 1.49111,-0.668963 0,0 -0.77533,0.777141 -1.2573,1.029301 -0.26991,0.141218 -0.88094,0.252849 -0.88094,0.252849 0,0 0.0289,2.273912 0.28796,3.372783 0.42348,1.796468 2.04419,5.155126 2.04419,5.155126 l -1.19442,-5.3101 1.72663,4.044259 -0.97846,-4.204495 4.35963,7.836978 -3.51583,4.81741 -2.4189,-0.02575 -3.2934,-3.826914 z"
       id="path25800"
       sodipodi:nodetypes="ccscscsccccccccc" /><path
       style="fill:#310206;fill-opacity:1;stroke:#000000;stroke-width:0;stroke-linejoin:round;stroke-dasharray:none"
       d="m 95.067522,43.63711 5.654178,-9.606664 c 0,0 1.12999,0.338184 1.71289,0.33743 0.6397,-7.66e-4 1.88169,-0.375125 1.88169,-0.375125 0,0 -0.99352,0.860017 -1.61295,1.010876 -0.28013,0.06824 -0.8622,-0.06957 -0.8622,-0.06957 l -1.34281,5.12895 3.17084,5.934793 -1.62658,-6.203049 2.82497,4.872215 -1.2108,-4.589608 2.51116,4.134622 -0.33843,-2.504845 4.8967,6.049055 -8.9913,9.160236 -7.876418,-11.327253 z"
       id="path37329"
       sodipodi:nodetypes="ccscscccccccccccc" /><path
       style="fill:#310206;fill-opacity:1;stroke:#000000;stroke-width:0;stroke-linejoin:round;stroke-dasharray:none"
       d="m 130.07901,48.729767 5.98804,-7.670273 -2.08577,5.053442 2.95453,-4.983594 -1.95742,5.166183 c 0,0 2.42683,-3.387557 3.09157,-5.290286 0.29689,-0.849832 0.37207,-2.654659 0.37207,-2.654659 0,0 -0.9156,-0.395203 -1.31351,-0.674067 -0.40177,-0.28155 -1.05935,-0.991222 -1.05935,-0.991222 0,0 0.93495,0.57643 1.46468,0.735688 0.44898,0.135055 1.40542,0.172141 1.40542,0.172141 l 0.86687,15.152364 -4.84156,1.28292 z"
       id="path40963"
       sodipodi:nodetypes="cccccscscscccc" /><path
       style="fill:#ff9a00;fill-opacity:1;stroke:#000000;stroke-width:0.520118;stroke-linejoin:round;stroke-dasharray:none;stroke-opacity:1"
       d="m 63.115752,76.829256 c 0,0 0.35876,-3.66864 0.32016,-5.50604 -0.0639,-3.04392 -0.3152,-6.10128 -0.91282,-9.08749 -0.60543,-3.02517 -1.52129,-6.002 -2.69142,-8.863032 -1.05873,-2.588654 -3.00406,-6.312528 -4.68471,-9.389239 -1.68065,-3.076699 -3.096609,-5.50626 -3.096609,-5.50626 l -2.23681,-3.897617 -0.38748,-2.401878 2.60328,-1.398474 2.399549,2.105171 11.33963,16.293272 c 0,0 0.43307,0.663081 0.78138,0.814313 0.32847,0.142599 0.74357,0.14779 1.07971,0.02075 0.29309,-0.110836 0.67699,-0.707881 0.67699,-0.707881 l 2.71451,-6.186824 6.04413,-13.475925 3.08575,-6.593967 3.87499,3.999686 4.4601,6.949597 7.4795,12.030629 4.854478,7.603197 5.22075,-6.131647 11.7476,-14.724333 6.21256,-6.941199 2.82034,4.076029 3.05038,9.759018 4.24615,12.855472 c 0,0 0.26448,0.4336 0.47703,0.55948 0.29335,0.1737 0.66735,0.26829 1.00669,0.21382 0.21714,-0.0349 0.56702,-0.33131 0.56702,-0.33131 l 13.19921,-14.44412 3.61018,-1.360766 -0.51748,4.87125 c 0,0 -2.24602,3.344743 -3.39889,4.997573 -1.46823,2.104937 -3.08205,4.114383 -4.48016,6.264183 -1.23239,1.894922 -2.44491,3.813282 -3.4381,5.837012 -1.03702,2.11312 -1.94652,4.29868 -2.61469,6.54802 -0.73897,2.48776 -1.52426,7.62458 -1.52426,7.62458 l -0.77416,4.63831 -0.22284,2.59147 c 0,0 -8.1325,-1.87888 -12.24331,-2.60396 -5.90944,-1.0423 -11.84975,-1.99285 -17.83376,-2.50655 -5.23237,-0.44918 -10.498318,-0.51921 -15.752618,-0.49927 -5.40863,0.0206 -10.82204,0.21714 -16.21505,0.63758 -3.62939,0.28296 -10.84698,1.26733 -10.84698,1.26733 z"
       id="path435"
       sodipodi:nodetypes="cssssccccccssccccccccccccccssccccsssscccssssc" /><ellipse
       style="fill:#ff9a00;fill-opacity:1;stroke:#000000;stroke-width:0.563401;stroke-linejoin:round;stroke-dasharray:none;stroke-opacity:1"
       id="path5023"
       cx="53.246887"
       cy="30.002346"
       rx="4.192049"
       ry="4.038269"
       transform="matrix(0.9986615,0.05172234,-0.05804958,0.9983137,0,0)" /><ellipse
       style="fill:#ff9a00;fill-opacity:1;stroke:#000000;stroke-width:0.581626;stroke-linejoin:round;stroke-dasharray:none;stroke-opacity:1"
       id="ellipse5025"
       cx="82.311539"
       cy="20.236332"
       rx="4.3267136"
       ry="4.1697831"
       transform="matrix(0.9986615,0.05172234,-0.05804958,0.9983137,0,0)" /><ellipse
       style="fill:#ff9a00;fill-opacity:1;stroke:#000000;stroke-width:0.565241;stroke-linejoin:round;stroke-dasharray:none;stroke-opacity:1"
       id="ellipse5027"
       cx="125.56677"
       cy="20.04311"
       rx="4.3529882"
       ry="3.9144065"
       transform="matrix(0.9986615,0.05172234,-0.05804958,0.9983137,0,0)" /><ellipse
       style="fill:#ff9a00;fill-opacity:1;stroke:#000000;stroke-width:0.538345;stroke-linejoin:round;stroke-dasharray:none;stroke-opacity:1"
       id="ellipse5029"
       cx="154.41559"
       cy="30.300953"
       rx="4.0068855"
       ry="3.8574376"
       transform="matrix(0.9986615,0.05172234,-0.05804958,0.9983137,0,0)" /><ellipse
       style="fill:#ff9a00;fill-opacity:1;stroke:#000000;stroke-width:0.397475;stroke-linejoin:round;stroke-dasharray:none;stroke-opacity:1"
       id="ellipse5089"
       cx="66.85482"
       cy="26.37566"
       rx="2.9787946"
       ry="2.828558"
       transform="matrix(0.9986615,0.05172234,-0.05804958,0.9983137,0,0)" /><ellipse
       style="fill:#ff9a00;fill-opacity:1;stroke:#000000;stroke-width:0.41199;stroke-linejoin:round;stroke-dasharray:none;stroke-opacity:1"
       id="ellipse5091"
       cx="103.93961"
       cy="24.761028"
       rx="3.0731919"
       ry="2.9455874"
       transform="matrix(0.9986615,0.05172234,-0.05804958,0.9983137,0,0)" /><ellipse
       style="fill:#ff9a00;fill-opacity:1;stroke:#000000;stroke-width:0.372793;stroke-linejoin:round;stroke-dasharray:none;stroke-opacity:1"
       id="ellipse5093"
       cx="141.10074"
       cy="26.32597"
       rx="2.9149756"
       ry="2.5426688"
       transform="matrix(0.9986615,0.05172234,-0.05804958,0.9983137,0,0)" /><path
       style="fill:#ff9a00;fill-opacity:1;stroke:#000000;stroke-width:0.515187;stroke-linejoin:round;stroke-dasharray:none;stroke-opacity:1"
       d="m 62.660052,76.971076 c 4.38415,-0.98532 9.48948,-1.39667 14.26575,-1.76267 5.06006,-0.38777 10.142,-0.51909 15.21396,-0.45661 5.686774,0.0701 11.375048,0.3735 17.031638,0.93191 4.38451,0.43283 8.74847,1.08143 13.08022,1.8722 4.48243,0.81831 8.83804,1.62876 13.33955,2.96884 0.55909,0.16643 1.14714,0.56294 1.34861,1.10828 0.17547,0.47496 0.0365,1.18387 -0.25719,1.59988 -0.25019,0.35453 -0.7229,0.60045 -1.13931,0.54546 -1.82713,-0.2414 -4.20178,-0.94747 -6.31462,-1.36548 -3.38533,-0.66981 -6.77578,-1.32752 -10.1911,-1.83026 -3.42894,-0.50475 -6.87727,-0.8905 -10.33164,-1.18941 -5.26604,-0.45564 -10.549084,-0.7364 -15.833358,-0.91963 -3.27624,-0.11362 -6.55656,-0.15797 -9.83538,-0.11111 -2.3548,0.0336 -4.71139,0.10396 -7.06054,0.28148 -3.06016,0.23118 -6.09946,0.69591 -9.15172,1.01947 -1.30588,0.13841 -2.61964,0.4562 -3.9197,0.39436 -0.49917,-0.0244 -0.82788,-0.57206 -1.02346,-1.08597 -0.118,-0.31005 -0.0955,-0.94373 -0.0385,-1.27143 0.0648,-0.372 0.46069,-0.6493 0.81677,-0.72933 z"
       id="path5095"
       sodipodi:nodetypes="ssssssssssssssssssss" /><path
       style="fill:#ff9a00;fill-opacity:1;stroke:#000000;stroke-width:0.56306;stroke-linejoin:round;stroke-dasharray:none;stroke-opacity:1"
       d="m 62.612652,62.451276 c 4.53413,-1.16816 9.80875,-1.67698 14.7433,-2.13122 5.22772,-0.48126 10.47618,-0.66595 15.71291,-0.62642 5.871554,0.0443 11.742948,0.35863 17.579788,0.96812 4.52417,0.47241 9.02561,1.19453 13.49276,2.08139 4.62258,0.91773 9.11416,1.82716 13.75265,3.34834 0.57609,0.18895 1.18043,0.64384 1.38451,1.2734 0.17774,0.54835 0.029,1.36931 -0.27716,1.85246 -0.26093,0.41177 -0.7508,0.6993 -1.1804,0.63837 -1.88489,-0.26746 -4.33181,-1.06893 -6.51042,-1.53889 -3.49081,-0.75299 -6.98693,-1.49197 -10.50988,-2.05151 -3.53698,-0.56177 -7.09487,-0.98581 -10.65963,-1.30926 -5.43429,-0.49314 -10.887394,-0.78381 -16.342528,-0.96165 -3.38214,-0.11031 -6.769,-0.14039 -10.15499,-0.0651 -2.43176,0.0541 -4.86563,0.15076 -7.2926,0.37122 -3.16154,0.28717 -6.30322,0.84443 -9.45727,1.23842 -1.34943,0.16856 -2.70829,0.54468 -4.05025,0.48152 -0.51523,-0.0254 -0.8507,-0.65644 -1.04894,-1.24966 -0.11961,-0.35795 -0.0918,-1.09115 -0.0305,-1.47061 0.0696,-0.43077 0.48043,-0.7541 0.84867,-0.84899 z"
       id="path5827"
       sodipodi:nodetypes="ssssssssssssssssssss" /><path
       style="fill:#ea8901;fill-opacity:1;stroke:#000000;stroke-width:0;stroke-linejoin:round;stroke-dasharray:none"
       d="m 58.469662,49.276376 c 3.10486,1.296852 7.10825,5.61008 10.11184,6.66419 1.54766,0.49722 3.31871,0.70136 4.88553,0.25302 1.65529,-0.47363 3.04288,-1.703482 4.20689,-2.947952 1.7682,-1.890384 3.98792,-6.617572 3.98792,-6.617572 0,0 1.90392,3.664558 3.30272,5.16604 1.28672,1.381172 2.83126,2.598032 4.5583,3.401904 2.24319,1.04411 4.78528,1.38965 7.250794,1.71222 3.993274,0.52246 8.075534,0.75166 12.086434,0.34457 1.17049,-0.11878 2.3423,-0.37507 3.43384,-0.80709 1.52478,-0.60348 2.94302,-1.47657 4.2502,-2.453242 1.60705,-1.20068 4.34807,-4.136621 4.34807,-4.136621 0,0 2.02372,3.821641 3.43011,5.454033 1.1191,1.29898 2.33945,2.64193 3.91168,3.36843 1.19776,0.55347 2.60157,0.69482 3.92706,0.62551 1.43943,-0.0752 2.88415,-0.4858 4.1727,-1.12057 2.3403,-1.15288 7.29048,-4.547062 7.29048,-4.547062 l -5.74256,11.697582 c 0,0 -18.17913,-4.22784 -27.45081,-4.93222 -7.88086,-0.5987 -16.122458,-1.22718 -23.936658,-0.94124 -7.81419,0.28592 -23.05599,2.05897 -23.05599,2.05897 z"
       id="path40967"
       sodipodi:nodetypes="ccsscsssssscssssccszcc" /><path
       style="fill:#310206;fill-opacity:1;stroke:#000000;stroke-width:0;stroke-linejoin:round;stroke-dasharray:none"
       d="m 142.7582,55.669676 c 0,0 -1.72454,3.18026 -2.46032,4.75164 -0.84957,1.81439 -2.07804,5.62915 -2.07804,5.62915 0,0 -3.57465,-1.20816 -5.43102,-1.66217 -1.47626,-0.36106 -4.57429,-1.08014 -4.57429,-1.08014 0,0 3.90063,0.29251 5.81663,0.20934 0.6485,-0.0282 1.31414,0.003 1.94023,-0.16678 0.56352,-0.15236 1.11854,-0.39572 1.57857,-0.74886 0.8188,-0.62857 1.39755,-1.51579 1.99025,-2.35187 0.54708,-0.77174 1.59162,-2.33266 1.59162,-2.33266 z"
       id="path18593"
       sodipodi:nodetypes="cscscsssscc" /><path
       style="fill:#310206;fill-opacity:1;stroke:#000000;stroke-width:0;stroke-linejoin:round;stroke-dasharray:none"
       d="m 59.477842,51.881262 c 0,0 1.05252,2.831682 1.62088,4.290934 0.44714,1.14803 1.0546,3.52427 1.0546,3.52427 l 0.59801,2.49345 3.90722,-0.8617 3.27338,-0.44278 3.76661,-0.47478 c 0,0 -4.99235,0.0833 -6.80778,-0.29735 -0.7777,-0.16294 -1.57709,-0.34225 -2.26473,-0.73117 -0.61105,-0.34562 -1.15125,-0.8305 -1.57692,-1.38039 -1.29198,-2.06688 -2.15875,-4.410882 -3.57127,-6.120474 z"
       id="path25798"
       sodipodi:nodetypes="cscccccssccc" /><path
       style="fill:#310206;fill-opacity:1;stroke:#000000;stroke-width:0;stroke-linejoin:round;stroke-dasharray:none"
       d="m 70.561182,35.268683 1.3106,2.6547 -0.84328,2.891344 1.51309,-3.018344 z"
       id="path36463" /><path
       style="fill:#310206;fill-opacity:1;stroke:#000000;stroke-width:0;stroke-linejoin:round;stroke-dasharray:none"
       d="m 107.28543,38.845801 c 0.0833,0.11864 1.35087,3.877751 1.35087,3.877751 l -0.22635,0.890676 0.77188,-0.965827 z"
       id="path38783"
       sodipodi:nodetypes="ccccc" /><path
       style="fill:#310206;fill-opacity:1;stroke:#000000;stroke-width:0;stroke-linejoin:round;stroke-dasharray:none"
       d="m 130.92976,40.886479 c 0.0601,-0.158543 2.29135,-2.381072 2.29135,-2.381072 l -1.59858,2.516445 0.57862,3.412727 z"
       id="path40965" /><path
       style="fill:#310206;fill-opacity:1;stroke:#000000;stroke-width:0;stroke-linejoin:round;stroke-dasharray:none"
       d="m 70.104172,48.285798 8.34412,-19.547119 c 0,0 1.31092,0.449338 1.99606,0.522427 0.92045,0.09815 2.77665,-0.119699 2.77665,-0.119699 l -1.51314,0.969491 -4.55362,9.86647 2.42118,-8.706479 z"
       id="path46993"
       sodipodi:nodetypes="ccsccccc" /><path
       style="fill:#310206;fill-opacity:1;stroke:#000000;stroke-width:0;stroke-linejoin:round;stroke-dasharray:none"
       d="M 104.92218,50.583304 121.242,30.186857 c 0,0 1.41085,0.948158 2.23063,1.073146 0.799,0.121815 2.40242,-0.34817 2.40242,-0.34817 l -1.8027,0.988616 -7.06635,8.041168 4.5085,-6.992173 z"
       id="path47064"
       sodipodi:nodetypes="ccsccccc" /><path
       style="fill:#310206;fill-opacity:1;stroke:#000000;stroke-width:0;stroke-linejoin:round;stroke-dasharray:none"
       d="m 52.634532,37.32735 4.35388,7.744091 -1.56491,-4.369257 z"
       id="path47066" /><path
       style="fill:#310206;fill-opacity:1;stroke:#000000;stroke-width:0;stroke-linejoin:round;stroke-dasharray:none"
       d="m 144.10377,52.214673 2.86317,-4.934632 1.85582,-2.172731 z"
       id="path47794" /><ellipse
       style="fill:#f6ebc3;fill-opacity:1;stroke:#000000;stroke-width:0;stroke-linejoin:round;stroke-dasharray:none"
       id="path48645"
       cx="55.281815"
       cy="28.431568"
       rx="1.0071905"
       ry="0.91336846"
       transform="matrix(0.9986615,0.05172234,-0.05804958,0.9983137,0,0)" /><ellipse
       style="fill:#f6ebc3;fill-opacity:1;stroke:#000000;stroke-width:0;stroke-linejoin:round;stroke-dasharray:none"
       id="ellipse52718"
       cx="51.465755"
       cy="50.379482"
       rx="0.77706867"
       ry="0.91484678"
       transform="matrix(0.9363029,-0.3511935,0.36372112,0.93150789,0,0)" /><ellipse
       style="fill:#f6ebc3;fill-opacity:1;stroke:#000000;stroke-width:0;stroke-linejoin:round;stroke-dasharray:none"
       id="ellipse54172"
       cx="83.515045"
       cy="18.275776"
       rx="1.0071905"
       ry="0.91336846"
       transform="matrix(0.9986615,0.05172234,-0.05804958,0.9983137,0,0)" /><ellipse
       style="fill:#f6ebc3;fill-opacity:1;stroke:#000000;stroke-width:0;stroke-linejoin:round;stroke-dasharray:none"
       id="ellipse54174"
       cx="92.450233"
       cy="-52.242985"
       rx="0.83040231"
       ry="0.59875405"
       transform="matrix(0.71123327,0.70295607,-0.71994239,0.69403383,0,0)" /><ellipse
       style="fill:#f6ebc3;fill-opacity:1;stroke:#000000;stroke-width:0;stroke-linejoin:round;stroke-dasharray:none"
       id="ellipse57155"
       cx="125.89587"
       cy="17.901463"
       rx="1.0071905"
       ry="0.91336846"
       transform="matrix(0.9986615,0.05172234,-0.05804958,0.9983137,0,0)" /><ellipse
       style="fill:#f6ebc3;fill-opacity:1;stroke:#000000;stroke-width:0;stroke-linejoin:round;stroke-dasharray:none"
       id="ellipse58609"
       cx="-76.283218"
       cy="-132.74631"
       rx="0.83321166"
       ry="0.5967378"
       transform="matrix(-0.70169082,0.71248157,-0.72935475,-0.68413569,0,0)" /><ellipse
       style="fill:#f6ebc3;fill-opacity:1;stroke:#000000;stroke-width:0;stroke-linejoin:round;stroke-dasharray:none"
       id="ellipse59337"
       cx="-142.69774"
       cy="13.738159"
       rx="0.839046"
       ry="0.59250671"
       transform="matrix(-0.94862637,-0.31639849,0.33323775,-0.94284283,0,0)" /><path
       style="fill:#8a61f4;fill-opacity:1;stroke:#000000;stroke-width:0.148605;stroke-linejoin:round;stroke-dasharray:none"
       d="m 97.003156,71.173956 3.144964,-6.10057 0.12612,0.009 2.40503,6.38177 -0.0127,0.22691 -1.34302,2.10347 3e-4,-0.005 -0.17249,0.11269 -2.877194,-0.14903 -0.17368,-0.10872 -1.10364,-2.25512 z"
       id="path63839" /><path
       style="fill:#8449f2;fill-opacity:1;stroke:#000000;stroke-width:0;stroke-linejoin:round;stroke-dasharray:none"
       d="m 98.428396,71.072866 1.586404,-3.34234 0.0629,0.004 1.18258,3.48236 -0.007,0.12406 -0.6761,1.15307 1.5e-4,-0.003 -0.0865,0.062 -1.435444,-0.0743 -0.0865,-0.059 -0.54464,-1.22945 z"
       id="path78408" /><ellipse
       style="fill:#e81646;fill-opacity:1;stroke:#000000;stroke-width:0.133104;stroke-linejoin:round;stroke-dasharray:none;stroke-opacity:1"
       id="path92172"
       cx="73.061745"
       cy="66.303162"
       rx="1.5431869"
       ry="3.5145326"
       transform="matrix(0.9975352,0.07016784,-0.07872851,0.99689609,0,0)" /><ellipse
       style="fill:#e81646;fill-opacity:1;stroke:#000000;stroke-width:0.133106;stroke-linejoin:round;stroke-dasharray:none;stroke-opacity:1"
       id="ellipse95195"
       cx="139.59512"
       cy="61.380508"
       rx="1.5427855"
       ry="3.5155573"
       transform="matrix(0.99540591,0.09574489,-0.10736677,0.99421948,0,0)" /><ellipse
       style="fill:#e97b98;fill-opacity:1;stroke:#000000;stroke-width:0;stroke-linejoin:round;stroke-dasharray:none;stroke-opacity:1"
       id="path95197"
       cx="75.781334"
       cy="63.05286"
       rx="0.60297263"
       ry="1.551585"
       transform="matrix(0.99386817,0.11057153,-0.12394386,0.99228923,0,0)" /><ellipse
       style="fill:#e97b98;fill-opacity:1;stroke:#000000;stroke-width:0;stroke-linejoin:round;stroke-dasharray:none;stroke-opacity:1"
       id="ellipse100581"
       cx="136.51361"
       cy="67.851547"
       rx="0.60334224"
       ry="1.5505197"
       transform="matrix(0.99888488,0.04721235,-0.05299096,0.99859499,0,0)" /><ellipse
       style="fill:#e81646;fill-opacity:1;stroke:#000000;stroke-width:0.133104;stroke-linejoin:round;stroke-dasharray:none;stroke-opacity:1"
       id="ellipse101319"
       cx="86.154984"
       cy="64.087685"
       rx="1.5431869"
       ry="3.5145326"
       transform="matrix(0.9975352,0.07016784,-0.07872851,0.99689609,0,0)" /><ellipse
       style="fill:#e97b98;fill-opacity:1;stroke:#000000;stroke-width:0;stroke-linejoin:round;stroke-dasharray:none;stroke-opacity:1"
       id="ellipse101321"
       cx="88.401772"
       cy="60.527012"
       rx="0.60297263"
       ry="1.551585"
       transform="matrix(0.99386817,0.11057153,-0.12394386,0.99228923,0,0)" /><ellipse
       style="fill:#e81646;fill-opacity:1;stroke:#000000;stroke-width:0.133106;stroke-linejoin:round;stroke-dasharray:none;stroke-opacity:1"
       id="ellipse101323"
       cx="124.50608"
       cy="60.096138"
       rx="1.5427855"
       ry="3.5155573"
       transform="matrix(0.99540591,0.09574489,-0.10736677,0.99421948,0,0)" /><ellipse
       style="fill:#e97b98;fill-opacity:1;stroke:#000000;stroke-width:0;stroke-linejoin:round;stroke-dasharray:none;stroke-opacity:1"
       id="ellipse101325"
       cx="121.6786"
       cy="65.468941"
       rx="0.60334224"
       ry="1.5505197"
       transform="matrix(0.99888488,0.04721235,-0.05299096,0.99859499,0,0)" /><path
       style="fill:#262429;fill-opacity:1;stroke:#000000;stroke-width:0.680735;stroke-linejoin:round;stroke-dasharray:none;stroke-opacity:1"
       d="m 20.807684,141.73726 c -0.835528,-2.9392 -0.406517,-6.13698 0.189643,-9.12765 0.846739,-4.24771 4.740947,-12.17023 4.740947,-12.17023 l 7.775171,-17.36047 c 0,0 2.41525,-15.642004 4.551304,-23.266584 2.018472,-7.2049 4.495904,-14.33945 7.775174,-21.11891 2.21085,-4.570662 7.964799,-13.065094 7.964799,-13.065094 0,0 9.02921,7.223292 13.08502,11.275354 5.70829,5.703 15.73997,18.25533 15.73997,18.25533 0,0 7.68066,-1.34158 11.56793,-1.61077 5.989088,-0.41472 12.044288,-0.60146 18.015598,0 5.65876,0.56997 16.68815,3.4005 16.68815,3.4005 0,0 7.05115,-9.39503 11.18867,-13.60201 5.38916,-5.47965 17.63634,-15.0338 17.63634,-15.0338 5.69641,6.77098 8.71429,15.73105 10.99899,22.90865 1.71963,5.40404 3.49772,11.9074 4.36167,17.00252 0.86395,5.0951 0.79087,9.15742 1.13782,13.423024 0.34697,4.26562 0.9482,12.17022 0.9482,12.17022 l 5.12025,14.85483 c 0,0 1.79493,5.44452 1.89638,8.05383 0.10149,2.60931 -0.18291,4.79916 -1.13784,7.33792 -0.95493,2.53876 -2.30586,4.98306 -4.74097,7.51691 -2.43509,2.53383 -6.01076,4.74593 -10.05082,6.97997 -21.94224,11.22555 -42.98759,12.71279 -67.511154,11.6333 -24.523554,-1.07949 -69.290816,-3.47242 -77.941242,-28.45684 z"
       id="path4372"
       sodipodi:nodetypes="csccsscscsscscczzcczzzczc"
       inkscape:export-filename=".\path1636.svg"
       inkscape:export-xdpi="109.38223"
       inkscape:export-ydpi="109.38223" /><path
       style="fill:#fdf2e0;fill-opacity:1;stroke:#000000;stroke-width:0.340367;stroke-linejoin:round;stroke-dasharray:none;stroke-opacity:1"
       d="m 43.743303,116.70125 c 0,0 12.824439,0.87737 19.248279,0.89487 6.54866,0.0179 19.62754,-0.80538 19.62754,-0.80538 -0.40221,6.39381 -5.19335,13.66554 -10.61973,16.37612 -2.39166,1.0784 -5.21938,1.07368 -7.86999,1.07383 -2.87408,1.7e-4 -5.85303,-0.18508 -8.53372,-1.16332 -2.52645,-0.92197 -4.884649,-2.42584 -6.732139,-4.29537 -3.32821,-3.67582 -4.66738,-7.3299 -5.12024,-12.08075 z"
       id="path4374"
       sodipodi:nodetypes="csccsscc" /><path
       style="fill:#fdf2e0;fill-opacity:1;stroke:#000000;stroke-width:0.136147;stroke-linejoin:round;stroke-dasharray:none;stroke-opacity:1"
       d="m 111.29227,116.74745 c 0,0 12.73811,0.42856 19.08881,0.36431 6.67316,-0.0674 19.94108,-0.80101 19.94108,-0.80101 -3.55373,10.82357 -9.19883,17.51032 -20.00683,17.76315 -8.44628,0.53963 -16.39951,-6.86415 -18.72675,-13.33355 -0.44908,-1.3362 -0.49418,-2.63646 -0.29631,-3.9929 z"
       id="path4376"
       sodipodi:nodetypes="cscccc" /><path
       style="fill:#252328;fill-opacity:1;stroke:#000000;stroke-width:0.0680734;stroke-linejoin:round;stroke-dasharray:none;stroke-opacity:1"
       d="m 124.80153,121.97017 c 0.69533,-1.86536 5.49488,-1.79957 6.28567,0.0316 0.49207,1.13946 -1.48057,2.52787 -2.78247,2.59434 -1.48906,0.076 -3.99809,-1.29832 -3.5032,-2.62596 z"
       id="path4378"
       sodipodi:nodetypes="ssss" /><path
       style="fill:#fdf2e0;fill-opacity:1;stroke:#000000;stroke-width:0.0680735;stroke-linejoin:round;stroke-dasharray:none;stroke-opacity:1"
       d="m 43.687403,128.931 c -6.444758,-0.16516 -13.019788,-3.60494 -17.873393,-5.72713 6.213327,1.03799 12.02504,2.20894 17.731163,3.84795 z"
       id="path4380"
       sodipodi:nodetypes="cccc" /><path
       style="fill:#fdf2e0;fill-opacity:1;stroke:#000000;stroke-width:0.0680735;stroke-linejoin:round;stroke-dasharray:none;stroke-opacity:1"
       d="m 43.402953,133.0474 -16.735575,6.30881 c 6.085941,-0.98247 11.837176,-2.73654 17.494115,-5.056 z"
       id="path4382"
       sodipodi:nodetypes="cccc" /><path
       style="fill:#fdf2e0;fill-opacity:1;stroke:#000000;stroke-width:0.0680735;stroke-linejoin:round;stroke-dasharray:none;stroke-opacity:1"
       d="m 43.971863,138.59558 c 0,0 0.50825,0.0575 0.66373,0.22372 0.19285,0.20617 0.18964,0.80538 0.18964,0.80538 -2.69564,1.3865 -5.113826,3.17322 -8.13073,3.76968 1.693857,-2.39675 5.03404,-3.5962 7.27736,-4.79878 z"
       id="path4384"
       sodipodi:nodetypes="csccc" /><path
       style="fill:#fdf2e0;fill-opacity:1;stroke:#000000;stroke-width:0.0680734;stroke-linejoin:round;stroke-dasharray:none;stroke-opacity:1"
       d="m 151.33309,127.58891 c 5.97935,-2.11182 12.87033,-3.45169 18.20332,-4.39773 -6.00062,2.715 -11.36513,5.05757 -17.59988,5.78981 0,0 -0.80486,-0.30151 -0.90514,-0.60112 -0.10033,-0.2996 0.3017,-0.79096 0.3017,-0.79096 z"
       id="path4386"
       sodipodi:nodetypes="ccczc" /><path
       style="fill:#fdf2e0;fill-opacity:1;stroke:#000000;stroke-width:0.0680734;stroke-linejoin:round;stroke-dasharray:none;stroke-opacity:1"
       d="m 151.50072,133.1889 c 6.48607,2.66233 11.75616,3.17162 17.1976,7.2452 -6.40364,-0.81045 -12.87028,-3.60409 -17.93513,-5.75819 0,0 -0.88688,-0.56576 -0.77104,-0.94915 0.14738,-0.48788 1.50857,-0.53786 1.50857,-0.53786 z"
       id="path4388"
       sodipodi:nodetypes="cccsc" /><path
       style="fill:#fdf2e0;fill-opacity:1;stroke:#000000;stroke-width:0.0680734;stroke-linejoin:round;stroke-dasharray:none;stroke-opacity:1"
       d="m 149.85806,138.75726 c 0.21889,-0.252 0.90513,-0.0949 0.90513,-0.0949 2.39796,1.32458 5.29446,2.84866 6.82205,5.06214 -2.84492,-0.46498 -5.20363,-2.46187 -7.62662,-3.8757 0,0 -0.31946,-0.83948 -0.10064,-1.09148 z"
       id="path4390"
       sodipodi:nodetypes="zcccz" /><path
       style="fill:#d9bbbc;fill-opacity:1;stroke:#000000;stroke-width:0.0680734;stroke-linejoin:round;stroke-dasharray:none;stroke-opacity:1"
       d="m 91.628372,131.41654 c 0.69533,-1.86537 5.494874,-1.79959 6.285664,0.0316 0.49206,1.13946 -1.48059,2.52786 -2.782464,2.59434 -1.48905,0.076 -3.99809,-1.29832 -3.5032,-2.62595 z"
       id="path4392"
       sodipodi:nodetypes="ssss" /><path
       style="fill:#252328;fill-opacity:1;stroke:#000000;stroke-width:0.0680734;stroke-linejoin:round;stroke-dasharray:none;stroke-opacity:1"
       d="m 60.599682,121.92017 c 0.69533,-1.86537 5.49488,-1.79958 6.28568,0.0316 0.49206,1.13946 -1.48059,2.52787 -2.78248,2.59435 -1.48906,0.076 -3.99809,-1.29833 -3.5032,-2.62596 z"
       id="path4394"
       sodipodi:nodetypes="ssss" /><path
       style="fill:#000000;fill-opacity:1;stroke:#000000;stroke-width:0.0680734;stroke-linejoin:round;stroke-dasharray:none;stroke-opacity:1"
       d="m 88.054982,139.80973 6.35288,-3.60185 7.206248,4.45198 c 0,0 0.24336,0.33578 0.14223,0.44743 -0.10394,0.11481 -0.40298,0.24609 -0.40298,0.24609 l -6.874378,-4.273 -6.06842,3.37813 c 0,0 -0.57576,0.0419 -0.66374,-0.15659 -0.0779,-0.17581 0.30816,-0.49219 0.30816,-0.49219 z"
       id="path4396"
       sodipodi:nodetypes="cccscccsc" /><path
       style="opacity:0.608833;fill:#000000;fill-opacity:1;stroke:#000000;stroke-width:0.0680734;stroke-linejoin:round;stroke-dasharray:none;stroke-opacity:1"
       d="m 53.809992,45.677326 -5.508799,42.8525 c 0,0 4.786449,-4.16535 7.509289,-5.82145 2.63804,-1.60452 5.49311,-2.92494 8.44793,-3.92317 2.76632,-0.93453 5.68499,-1.43587 8.58206,-1.8983 3.368,-0.53761 10.19116,-1.01244 10.19116,-1.01244 0,0 -12.92436,-16.78204 -21.07583,-23.561986 -2.10194,-1.748296 -8.14581,-6.635154 -8.14581,-6.635154 z"
       id="path4398"
       sodipodi:nodetypes="ccssscsc" /><path
       style="fill:#ff9a00;fill-opacity:1;stroke:#000000;stroke-width:0.520118;stroke-linejoin:round;stroke-dasharray:none;stroke-opacity:1"
       d="m 59.908692,50.808841 4.42319,-21.50787 1.45152,-0.208012 17.43253,18.701878 8.84457,-4.009248 9.195958,-13.769987 2.07742,0.213157 9.98752,19.090159 7.68909,-0.868107 16.9691,-14.844772 2.2137,0.7525 1.53392,19.069765 -5.46453,4.747152 z"
       id="path4400"
       sodipodi:nodetypes="cccccccccccccc" /><path
       style="fill:#310206;fill-opacity:1;stroke:#000000;stroke-width:0;stroke-linejoin:round;stroke-dasharray:none"
       d="m 63.318582,46.086179 2.04074,-11.435443 c 0,0 0.7551,0.08491 1.12057,0.008 0.53446,-0.11216 1.49111,-0.668963 1.49111,-0.668963 0,0 -0.77533,0.777141 -1.2573,1.029301 -0.26991,0.141218 -0.88094,0.252849 -0.88094,0.252849 0,0 0.0289,2.273912 0.28796,3.372783 0.42348,1.796468 2.04419,5.155126 2.04419,5.155126 l -1.19442,-5.3101 1.72663,4.044259 -0.97846,-4.204495 4.35963,7.836978 -3.51583,4.81741 -2.4189,-0.02575 -3.2934,-3.826914 z"
       id="path4402"
       sodipodi:nodetypes="ccscscsccccccccc" /><path
       style="fill:#310206;fill-opacity:1;stroke:#000000;stroke-width:0;stroke-linejoin:round;stroke-dasharray:none"
       d="m 95.067522,43.63711 5.654178,-9.606664 c 0,0 1.12999,0.338184 1.71289,0.33743 0.6397,-7.66e-4 1.88169,-0.375125 1.88169,-0.375125 0,0 -0.99352,0.860017 -1.61295,1.010876 -0.28013,0.06824 -0.8622,-0.06957 -0.8622,-0.06957 l -1.34281,5.12895 3.17084,5.934793 -1.62658,-6.203049 2.82497,4.872215 -1.2108,-4.589608 2.51116,4.134622 -0.33843,-2.504845 4.8967,6.049055 -8.9913,9.160236 -7.876418,-11.327253 z"
       id="path4404"
       sodipodi:nodetypes="ccscscccccccccccc" /><path
       style="fill:#310206;fill-opacity:1;stroke:#000000;stroke-width:0;stroke-linejoin:round;stroke-dasharray:none"
       d="m 130.07901,48.729767 5.98804,-7.670273 -2.08577,5.053442 2.95453,-4.983594 -1.95742,5.166183 c 0,0 2.42683,-3.387557 3.09157,-5.290286 0.29689,-0.849832 0.37207,-2.654659 0.37207,-2.654659 0,0 -0.9156,-0.395203 -1.31351,-0.674067 -0.40177,-0.28155 -1.05935,-0.991222 -1.05935,-0.991222 0,0 0.93495,0.57643 1.46468,0.735688 0.44898,0.135055 1.40542,0.172141 1.40542,0.172141 l 0.86687,15.152364 -4.84156,1.28292 z"
       id="path4406"
       sodipodi:nodetypes="cccccscscscccc" /><path
       style="fill:#ff9a00;fill-opacity:1;stroke:#000000;stroke-width:0.520118;stroke-linejoin:round;stroke-dasharray:none;stroke-opacity:1"
       d="m 63.115752,76.829256 c 0,0 0.35876,-3.66864 0.32016,-5.50604 -0.0639,-3.04392 -0.3152,-6.10128 -0.91282,-9.08749 -0.60543,-3.02517 -1.52129,-6.002 -2.69142,-8.863032 -1.05873,-2.588654 -3.00406,-6.312528 -4.68471,-9.389239 -1.68065,-3.076699 -3.096609,-5.50626 -3.096609,-5.50626 l -2.23681,-3.897617 -0.38748,-2.401878 2.60328,-1.398474 2.399549,2.105171 11.33963,16.293272 c 0,0 0.43307,0.663081 0.78138,0.814313 0.32847,0.142599 0.74357,0.14779 1.07971,0.02075 0.29309,-0.110836 0.67699,-0.707881 0.67699,-0.707881 l 2.71451,-6.186824 6.04413,-13.475925 3.08575,-6.593967 3.87499,3.999686 4.4601,6.949597 7.4795,12.030629 4.854478,7.603197 5.22075,-6.131647 11.7476,-14.724333 6.21256,-6.941199 2.82034,4.076029 3.05038,9.759018 4.24615,12.855472 c 0,0 0.26448,0.4336 0.47703,0.55948 0.29335,0.1737 0.66735,0.26829 1.00669,0.21382 0.21714,-0.0349 0.56702,-0.33131 0.56702,-0.33131 l 13.19921,-14.44412 3.61018,-1.360766 -0.51748,4.87125 c 0,0 -2.24602,3.344743 -3.39889,4.997573 -1.46823,2.104937 -3.08205,4.114383 -4.48016,6.264183 -1.23239,1.894922 -2.44491,3.813282 -3.4381,5.837012 -1.03702,2.11312 -1.94652,4.29868 -2.61469,6.54802 -0.73897,2.48776 -1.52426,7.62458 -1.52426,7.62458 l -0.77416,4.63831 -0.22284,2.59147 c 0,0 -8.1325,-1.87888 -12.24331,-2.60396 -5.90944,-1.0423 -11.84975,-1.99285 -17.83376,-2.50655 -5.23237,-0.44918 -10.498318,-0.51921 -15.752618,-0.49927 -5.40863,0.0206 -10.82204,0.21714 -16.21505,0.63758 -3.62939,0.28296 -10.84698,1.26733 -10.84698,1.26733 z"
       id="path4408"
       sodipodi:nodetypes="cssssccccccssccccccccccccccssccccsssscccssssc" /><ellipse
       style="fill:#ff9a00;fill-opacity:1;stroke:#000000;stroke-width:0.563401;stroke-linejoin:round;stroke-dasharray:none;stroke-opacity:1"
       id="ellipse4410"
       cx="53.246887"
       cy="30.002346"
       rx="4.192049"
       ry="4.038269"
       transform="matrix(0.9986615,0.05172234,-0.05804958,0.9983137,0,0)" /><ellipse
       style="fill:#ff9a00;fill-opacity:1;stroke:#000000;stroke-width:0.581626;stroke-linejoin:round;stroke-dasharray:none;stroke-opacity:1"
       id="ellipse4412"
       cx="82.311539"
       cy="20.236332"
       rx="4.3267136"
       ry="4.1697831"
       transform="matrix(0.9986615,0.05172234,-0.05804958,0.9983137,0,0)" /><ellipse
       style="fill:#ff9a00;fill-opacity:1;stroke:#000000;stroke-width:0.565241;stroke-linejoin:round;stroke-dasharray:none;stroke-opacity:1"
       id="ellipse4414"
       cx="125.56677"
       cy="20.04311"
       rx="4.3529882"
       ry="3.9144065"
       transform="matrix(0.9986615,0.05172234,-0.05804958,0.9983137,0,0)" /><ellipse
       style="fill:#ff9a00;fill-opacity:1;stroke:#000000;stroke-width:0.538345;stroke-linejoin:round;stroke-dasharray:none;stroke-opacity:1"
       id="ellipse4416"
       cx="154.41559"
       cy="30.300953"
       rx="4.0068855"
       ry="3.8574376"
       transform="matrix(0.9986615,0.05172234,-0.05804958,0.9983137,0,0)" /><ellipse
       style="fill:#ff9a00;fill-opacity:1;stroke:#000000;stroke-width:0.397475;stroke-linejoin:round;stroke-dasharray:none;stroke-opacity:1"
       id="ellipse4418"
       cx="66.85482"
       cy="26.37566"
       rx="2.9787946"
       ry="2.828558"
       transform="matrix(0.9986615,0.05172234,-0.05804958,0.9983137,0,0)" /><ellipse
       style="fill:#ff9a00;fill-opacity:1;stroke:#000000;stroke-width:0.41199;stroke-linejoin:round;stroke-dasharray:none;stroke-opacity:1"
       id="ellipse4420"
       cx="103.93961"
       cy="24.761028"
       rx="3.0731919"
       ry="2.9455874"
       transform="matrix(0.9986615,0.05172234,-0.05804958,0.9983137,0,0)" /><ellipse
       style="fill:#ff9a00;fill-opacity:1;stroke:#000000;stroke-width:0.372793;stroke-linejoin:round;stroke-dasharray:none;stroke-opacity:1"
       id="ellipse4422"
       cx="141.10074"
       cy="26.32597"
       rx="2.9149756"
       ry="2.5426688"
       transform="matrix(0.9986615,0.05172234,-0.05804958,0.9983137,0,0)" /><path
       style="fill:#ff9a00;fill-opacity:1;stroke:#000000;stroke-width:0.515187;stroke-linejoin:round;stroke-dasharray:none;stroke-opacity:1"
       d="m 62.660052,76.971076 c 4.38415,-0.98532 9.48948,-1.39667 14.26575,-1.76267 5.06006,-0.38777 10.142,-0.51909 15.21396,-0.45661 5.686774,0.0701 11.375048,0.3735 17.031638,0.93191 4.38451,0.43283 8.74847,1.08143 13.08022,1.8722 4.48243,0.81831 8.83804,1.62876 13.33955,2.96884 0.55909,0.16643 1.14714,0.56294 1.34861,1.10828 0.17547,0.47496 0.0365,1.18387 -0.25719,1.59988 -0.25019,0.35453 -0.7229,0.60045 -1.13931,0.54546 -1.82713,-0.2414 -4.20178,-0.94747 -6.31462,-1.36548 -3.38533,-0.66981 -6.77578,-1.32752 -10.1911,-1.83026 -3.42894,-0.50475 -6.87727,-0.8905 -10.33164,-1.18941 -5.26604,-0.45564 -10.549084,-0.7364 -15.833358,-0.91963 -3.27624,-0.11362 -6.55656,-0.15797 -9.83538,-0.11111 -2.3548,0.0336 -4.71139,0.10396 -7.06054,0.28148 -3.06016,0.23118 -6.09946,0.69591 -9.15172,1.01947 -1.30588,0.13841 -2.61964,0.4562 -3.9197,0.39436 -0.49917,-0.0244 -0.82788,-0.57206 -1.02346,-1.08597 -0.118,-0.31005 -0.0955,-0.94373 -0.0385,-1.27143 0.0648,-0.372 0.46069,-0.6493 0.81677,-0.72933 z"
       id="path4424"
       sodipodi:nodetypes="ssssssssssssssssssss" /><path
       style="fill:#ff9a00;fill-opacity:1;stroke:#000000;stroke-width:0.56306;stroke-linejoin:round;stroke-dasharray:none;stroke-opacity:1"
       d="m 62.612652,62.451276 c 4.53413,-1.16816 9.80875,-1.67698 14.7433,-2.13122 5.22772,-0.48126 10.47618,-0.66595 15.71291,-0.62642 5.871554,0.0443 11.742948,0.35863 17.579788,0.96812 4.52417,0.47241 9.02561,1.19453 13.49276,2.08139 4.62258,0.91773 9.11416,1.82716 13.75265,3.34834 0.57609,0.18895 1.18043,0.64384 1.38451,1.2734 0.17774,0.54835 0.029,1.36931 -0.27716,1.85246 -0.26093,0.41177 -0.7508,0.6993 -1.1804,0.63837 -1.88489,-0.26746 -4.33181,-1.06893 -6.51042,-1.53889 -3.49081,-0.75299 -6.98693,-1.49197 -10.50988,-2.05151 -3.53698,-0.56177 -7.09487,-0.98581 -10.65963,-1.30926 -5.43429,-0.49314 -10.887394,-0.78381 -16.342528,-0.96165 -3.38214,-0.11031 -6.769,-0.14039 -10.15499,-0.0651 -2.43176,0.0541 -4.86563,0.15076 -7.2926,0.37122 -3.16154,0.28717 -6.30322,0.84443 -9.45727,1.23842 -1.34943,0.16856 -2.70829,0.54468 -4.05025,0.48152 -0.51523,-0.0254 -0.8507,-0.65644 -1.04894,-1.24966 -0.11961,-0.35795 -0.0918,-1.09115 -0.0305,-1.47061 0.0696,-0.43077 0.48043,-0.7541 0.84867,-0.84899 z"
       id="path4426"
       sodipodi:nodetypes="ssssssssssssssssssss" /><path
       style="fill:#ea8901;fill-opacity:1;stroke:#000000;stroke-width:0;stroke-linejoin:round;stroke-dasharray:none"
       d="m 58.469662,49.276376 c 3.10486,1.296852 7.10825,5.61008 10.11184,6.66419 1.54766,0.49722 3.31871,0.70136 4.88553,0.25302 1.65529,-0.47363 3.04288,-1.703482 4.20689,-2.947952 1.7682,-1.890384 3.98792,-6.617572 3.98792,-6.617572 0,0 1.90392,3.664558 3.30272,5.16604 1.28672,1.381172 2.83126,2.598032 4.5583,3.401904 2.24319,1.04411 4.78528,1.38965 7.250794,1.71222 3.993274,0.52246 8.075534,0.75166 12.086434,0.34457 1.17049,-0.11878 2.3423,-0.37507 3.43384,-0.80709 1.52478,-0.60348 2.94302,-1.47657 4.2502,-2.453242 1.60705,-1.20068 4.34807,-4.136621 4.34807,-4.136621 0,0 2.02372,3.821641 3.43011,5.454033 1.1191,1.29898 2.33945,2.64193 3.91168,3.36843 1.19776,0.55347 2.60157,0.69482 3.92706,0.62551 1.43943,-0.0752 2.88415,-0.4858 4.1727,-1.12057 2.3403,-1.15288 7.29048,-4.547062 7.29048,-4.547062 l -5.74256,11.697582 c 0,0 -18.17913,-4.22784 -27.45081,-4.93222 -7.88086,-0.5987 -16.122458,-1.22718 -23.936658,-0.94124 -7.81419,0.28592 -23.05599,2.05897 -23.05599,2.05897 z"
       id="path4428"
       sodipodi:nodetypes="ccsscsssssscssssccszcc" /><path
       style="fill:#310206;fill-opacity:1;stroke:#000000;stroke-width:0;stroke-linejoin:round;stroke-dasharray:none"
       d="m 142.7582,55.669676 c 0,0 -1.72454,3.18026 -2.46032,4.75164 -0.84957,1.81439 -2.07804,5.62915 -2.07804,5.62915 0,0 -3.57465,-1.20816 -5.43102,-1.66217 -1.47626,-0.36106 -4.57429,-1.08014 -4.57429,-1.08014 0,0 3.90063,0.29251 5.81663,0.20934 0.6485,-0.0282 1.31414,0.003 1.94023,-0.16678 0.56352,-0.15236 1.11854,-0.39572 1.57857,-0.74886 0.8188,-0.62857 1.39755,-1.51579 1.99025,-2.35187 0.54708,-0.77174 1.59162,-2.33266 1.59162,-2.33266 z"
       id="path4430"
       sodipodi:nodetypes="cscscsssscc" /><path
       style="fill:#310206;fill-opacity:1;stroke:#000000;stroke-width:0;stroke-linejoin:round;stroke-dasharray:none"
       d="m 59.477842,51.881262 c 0,0 1.05252,2.831682 1.62088,4.290934 0.44714,1.14803 1.0546,3.52427 1.0546,3.52427 l 0.59801,2.49345 3.90722,-0.8617 3.27338,-0.44278 3.76661,-0.47478 c 0,0 -4.99235,0.0833 -6.80778,-0.29735 -0.7777,-0.16294 -1.57709,-0.34225 -2.26473,-0.73117 -0.61105,-0.34562 -1.15125,-0.8305 -1.57692,-1.38039 -1.29198,-2.06688 -2.15875,-4.410882 -3.57127,-6.120474 z"
       id="path4432"
       sodipodi:nodetypes="cscccccssccc" /><path
       style="fill:#310206;fill-opacity:1;stroke:#000000;stroke-width:0;stroke-linejoin:round;stroke-dasharray:none"
       d="m 70.561182,35.268683 1.3106,2.6547 -0.84328,2.891344 1.51309,-3.018344 z"
       id="path4434" /><path
       style="fill:#310206;fill-opacity:1;stroke:#000000;stroke-width:0;stroke-linejoin:round;stroke-dasharray:none"
       d="m 107.28543,38.845801 c 0.0833,0.11864 1.35087,3.877751 1.35087,3.877751 l -0.22635,0.890676 0.77188,-0.965827 z"
       id="path4436"
       sodipodi:nodetypes="ccccc" /><path
       style="fill:#310206;fill-opacity:1;stroke:#000000;stroke-width:0;stroke-linejoin:round;stroke-dasharray:none"
       d="m 130.92976,40.886479 c 0.0601,-0.158543 2.29135,-2.381072 2.29135,-2.381072 l -1.59858,2.516445 0.57862,3.412727 z"
       id="path4438" /><path
       style="fill:#310206;fill-opacity:1;stroke:#000000;stroke-width:0;stroke-linejoin:round;stroke-dasharray:none"
       d="m 70.104172,48.285798 8.34412,-19.547119 c 0,0 1.31092,0.449338 1.99606,0.522427 0.92045,0.09815 2.77665,-0.119699 2.77665,-0.119699 l -1.51314,0.969491 -4.55362,9.86647 2.42118,-8.706479 z"
       id="path4440"
       sodipodi:nodetypes="ccsccccc" /><path
       style="fill:#310206;fill-opacity:1;stroke:#000000;stroke-width:0;stroke-linejoin:round;stroke-dasharray:none"
       d="M 104.92218,50.583304 121.242,30.186857 c 0,0 1.41085,0.948158 2.23063,1.073146 0.799,0.121815 2.40242,-0.34817 2.40242,-0.34817 l -1.8027,0.988616 -7.06635,8.041168 4.5085,-6.992173 z"
       id="path4442"
       sodipodi:nodetypes="ccsccccc" /><path
       style="fill:#310206;fill-opacity:1;stroke:#000000;stroke-width:0;stroke-linejoin:round;stroke-dasharray:none"
       d="m 52.634532,37.32735 4.35388,7.744091 -1.56491,-4.369257 z"
       id="path4444" /><path
       style="fill:#310206;fill-opacity:1;stroke:#000000;stroke-width:0;stroke-linejoin:round;stroke-dasharray:none"
       d="m 144.10377,52.214673 2.86317,-4.934632 1.85582,-2.172731 z"
       id="path4446" /><ellipse
       style="fill:#f6ebc3;fill-opacity:1;stroke:#000000;stroke-width:0;stroke-linejoin:round;stroke-dasharray:none"
       id="ellipse4448"
       cx="55.281815"
       cy="28.431568"
       rx="1.0071905"
       ry="0.91336846"
       transform="matrix(0.9986615,0.05172234,-0.05804958,0.9983137,0,0)" /><ellipse
       style="fill:#f6ebc3;fill-opacity:1;stroke:#000000;stroke-width:0;stroke-linejoin:round;stroke-dasharray:none"
       id="ellipse4450"
       cx="51.465755"
       cy="50.379482"
       rx="0.77706867"
       ry="0.91484678"
       transform="matrix(0.9363029,-0.3511935,0.36372112,0.93150789,0,0)" /><ellipse
       style="fill:#f6ebc3;fill-opacity:1;stroke:#000000;stroke-width:0;stroke-linejoin:round;stroke-dasharray:none"
       id="ellipse4452"
       cx="83.515045"
       cy="18.275776"
       rx="1.0071905"
       ry="0.91336846"
       transform="matrix(0.9986615,0.05172234,-0.05804958,0.9983137,0,0)" /><ellipse
       style="fill:#f6ebc3;fill-opacity:1;stroke:#000000;stroke-width:0;stroke-linejoin:round;stroke-dasharray:none"
       id="ellipse4454"
       cx="92.450233"
       cy="-52.242985"
       rx="0.83040231"
       ry="0.59875405"
       transform="matrix(0.71123327,0.70295607,-0.71994239,0.69403383,0,0)" /><ellipse
       style="fill:#f6ebc3;fill-opacity:1;stroke:#000000;stroke-width:0;stroke-linejoin:round;stroke-dasharray:none"
       id="ellipse4456"
       cx="125.89587"
       cy="17.901463"
       rx="1.0071905"
       ry="0.91336846"
       transform="matrix(0.9986615,0.05172234,-0.05804958,0.9983137,0,0)" /><ellipse
       style="fill:#f6ebc3;fill-opacity:1;stroke:#000000;stroke-width:0;stroke-linejoin:round;stroke-dasharray:none"
       id="ellipse4458"
       cx="-76.283218"
       cy="-132.74631"
       rx="0.83321166"
       ry="0.5967378"
       transform="matrix(-0.70169082,0.71248157,-0.72935475,-0.68413569,0,0)" /><ellipse
       style="fill:#f6ebc3;fill-opacity:1;stroke:#000000;stroke-width:0;stroke-linejoin:round;stroke-dasharray:none"
       id="ellipse4460"
       cx="-142.69774"
       cy="13.738159"
       rx="0.839046"
       ry="0.59250671"
       transform="matrix(-0.94862637,-0.31639849,0.33323775,-0.94284283,0,0)" /><path
       style="fill:#8a61f4;fill-opacity:1;stroke:#000000;stroke-width:0.148605;stroke-linejoin:round;stroke-dasharray:none"
       d="m 97.003156,71.173956 3.144964,-6.10057 0.12612,0.009 2.40503,6.38177 -0.0127,0.22691 -1.34302,2.10347 3e-4,-0.005 -0.17249,0.11269 -2.877194,-0.14903 -0.17368,-0.10872 -1.10364,-2.25512 z"
       id="path4462" /><path
       style="fill:#8449f2;fill-opacity:1;stroke:#000000;stroke-width:0;stroke-linejoin:round;stroke-dasharray:none"
       d="m 98.428396,71.072866 1.586404,-3.34234 0.0629,0.004 1.18258,3.48236 -0.007,0.12406 -0.6761,1.15307 1.5e-4,-0.003 -0.0865,0.062 -1.435444,-0.0743 -0.0865,-0.059 -0.54464,-1.22945 z"
       id="path4464" /><ellipse
       style="fill:#e81646;fill-opacity:1;stroke:#000000;stroke-width:0.133104;stroke-linejoin:round;stroke-dasharray:none;stroke-opacity:1"
       id="ellipse4466"
       cx="73.061745"
       cy="66.303162"
       rx="1.5431869"
       ry="3.5145326"
       transform="matrix(0.9975352,0.07016784,-0.07872851,0.99689609,0,0)" /><ellipse
       style="fill:#e81646;fill-opacity:1;stroke:#000000;stroke-width:0.133106;stroke-linejoin:round;stroke-dasharray:none;stroke-opacity:1"
       id="ellipse4468"
       cx="139.59512"
       cy="61.380508"
       rx="1.5427855"
       ry="3.5155573"
       transform="matrix(0.99540591,0.09574489,-0.10736677,0.99421948,0,0)" /><ellipse
       style="fill:#e97b98;fill-opacity:1;stroke:#000000;stroke-width:0;stroke-linejoin:round;stroke-dasharray:none;stroke-opacity:1"
       id="ellipse4470"
       cx="75.781334"
       cy="63.05286"
       rx="0.60297263"
       ry="1.551585"
       transform="matrix(0.99386817,0.11057153,-0.12394386,0.99228923,0,0)" /><ellipse
       style="fill:#e97b98;fill-opacity:1;stroke:#000000;stroke-width:0;stroke-linejoin:round;stroke-dasharray:none;stroke-opacity:1"
       id="ellipse4472"
       cx="136.51361"
       cy="67.851547"
       rx="0.60334224"
       ry="1.5505197"
       transform="matrix(0.99888488,0.04721235,-0.05299096,0.99859499,0,0)" /><ellipse
       style="fill:#e81646;fill-opacity:1;stroke:#000000;stroke-width:0.133104;stroke-linejoin:round;stroke-dasharray:none;stroke-opacity:1"
       id="ellipse4474"
       cx="86.154984"
       cy="64.087692"
       rx="1.5431869"
       ry="3.5145326"
       transform="matrix(0.9975352,0.07016784,-0.07872851,0.99689609,0,0)" /><ellipse
       style="fill:#e97b98;fill-opacity:1;stroke:#000000;stroke-width:0;stroke-linejoin:round;stroke-dasharray:none;stroke-opacity:1"
       id="ellipse4476"
       cx="88.401772"
       cy="60.527012"
       rx="0.60297263"
       ry="1.551585"
       transform="matrix(0.99386817,0.11057153,-0.12394386,0.99228923,0,0)" /><ellipse
       style="fill:#e81646;fill-opacity:1;stroke:#000000;stroke-width:0.133106;stroke-linejoin:round;stroke-dasharray:none;stroke-opacity:1"
       id="ellipse4478"
       cx="124.50608"
       cy="60.096138"
       rx="1.5427855"
       ry="3.5155573"
       transform="matrix(0.99540591,0.09574489,-0.10736677,0.99421948,0,0)" /><ellipse
       style="fill:#e97b98;fill-opacity:1;stroke:#000000;stroke-width:0;stroke-linejoin:round;stroke-dasharray:none;stroke-opacity:1"
       id="ellipse4480"
       cx="121.6786"
       cy="65.468941"
       rx="0.60334224"
       ry="1.5505197"
       transform="matrix(0.99888488,0.04721235,-0.05299096,0.99859499,0,0)" /></g></svg>
